<svg width="66" height="72" viewBox="0 0 66 72" fill="none" xmlns="http://www.w3.org/2000/svg">
<path d="M33.9387 47.5501C45.3296 47.5501 54.5638 38.316 54.5638 26.9251C54.5638 15.5342 45.3296 6.30005 33.9387 6.30005C22.5479 6.30005 13.3137 15.5342 13.3137 26.9251C13.3137 38.316 22.5479 47.5501 33.9387 47.5501Z" fill="#DDF9FF"/>
<path d="M14.6383 39.1998L3.4137 62.1724L14.793 59.8965L21.6206 69L31.1656 48.4444" fill="#DDF9FF"/>
<path d="M14.6383 39.1998L3.4137 62.1724L14.793 59.8965L21.6206 69L31.1656 48.4444" stroke="#124E78" stroke-width="2.75" stroke-miterlimit="10" stroke-linecap="round" stroke-linejoin="round"/>
<path d="M51.3618 39.1998L62.5864 62.1724L51.207 59.8965L44.3794 69L34.8345 48.4444" fill="#DDF9FF"/>
<path d="M51.3618 39.1998L62.5864 62.1724L51.207 59.8965L44.3795 69L34.8345 48.4444" stroke="#124E78" stroke-width="2.75" stroke-miterlimit="10" stroke-linecap="round" stroke-linejoin="round"/>
<path d="M33 48.5173C45.5692 48.5173 55.7586 38.3279 55.7586 25.7586C55.7586 13.1894 45.5692 3 33 3C20.4307 3 10.2413 13.1894 10.2413 25.7586C10.2413 38.3279 20.4307 48.5173 33 48.5173Z" stroke="#124E78" stroke-width="2.75" stroke-miterlimit="10" stroke-linecap="round" stroke-linejoin="round"/>
<path d="M27.4508 7.29023C17.8206 10.0721 12.2688 20.134 15.0507 29.7643" stroke="#124E78" stroke-width="2.75" stroke-miterlimit="10" stroke-linecap="round" stroke-linejoin="round"/>
<path d="M33.0001 34.8621C38.0278 34.8621 42.1035 30.7864 42.1035 25.7587C42.1035 20.731 38.0278 16.6552 33.0001 16.6552C27.9724 16.6552 23.8966 20.731 23.8966 25.7587C23.8966 30.7864 27.9724 34.8621 33.0001 34.8621Z" stroke="#124E78" stroke-width="2.75" stroke-miterlimit="10" stroke-linecap="round" stroke-linejoin="round"/>
<path d="M15.7887 45.0771L10.0137 56.6272L16.6137 54.9772" stroke="#124E78" stroke-width="2.75" stroke-linecap="round" stroke-linejoin="round"/>
<path d="M40.5388 50.8522L45.4885 61.5773L49.6135 55.8024" stroke="#124E78" stroke-width="2.75" stroke-linecap="round" stroke-linejoin="round"/>
<path d="M31.2029 6.62872C31.9106 6.46941 33.8596 6.25939 35.9944 6.69379" stroke="#124E78" stroke-width="2.75" stroke-linecap="round" stroke-linejoin="round"/>
</svg>
