<svg width="32" height="32" viewBox="0 0 32 32" fill="none" xmlns="http://www.w3.org/2000/svg">
<path d="M28 4H4.00004C2.52728 4 1.33337 5.19391 1.33337 6.66667V26.6667C1.33337 28.1394 2.52728 29.3333 4.00004 29.3333H28C29.4728 29.3333 30.6667 28.1394 30.6667 26.6667V6.66667C30.6667 5.19391 29.4728 4 28 4Z" stroke="#00AFD0" stroke-width="2" stroke-miterlimit="10" stroke-linecap="square"/>
<path d="M8 1.33331V5.33331" stroke="#00AFD0" stroke-width="2" stroke-miterlimit="10" stroke-linecap="square"/>
<path d="M24 1.33331V5.33331" stroke="#00AFD0" stroke-width="2" stroke-miterlimit="10" stroke-linecap="square"/>
<path d="M1.33337 10.6666H30.6667" stroke="#00AFD0" stroke-width="2" stroke-miterlimit="10" stroke-linecap="square"/>
<path d="M16.532 19.954H14.096V22.334H12.29V19.954H9.868V18.246H12.29V15.866H14.096V18.246H16.532V19.954ZM21.4061 14.2V24H19.1381V16.02H17.1781V14.2H21.4061Z" fill="#00AFD0"/>
</svg>
