<svg width="32" height="32" viewBox="0 0 32 32" fill="none" xmlns="http://www.w3.org/2000/svg">
<path d="M28 4H4.00004C2.52728 4 1.33337 5.19391 1.33337 6.66667V26.6667C1.33337 28.1394 2.52728 29.3333 4.00004 29.3333H28C29.4728 29.3333 30.6667 28.1394 30.6667 26.6667V6.66667C30.6667 5.19391 29.4728 4 28 4Z" stroke="#00AFD0" stroke-width="2" stroke-miterlimit="10" stroke-linecap="square"/>
<path d="M8 1.33331V5.33331" stroke="#00AFD0" stroke-width="2" stroke-miterlimit="10" stroke-linecap="square"/>
<path d="M24 1.33331V5.33331" stroke="#00AFD0" stroke-width="2" stroke-miterlimit="10" stroke-linecap="square"/>
<path d="M1.33337 10.6666H30.6667" stroke="#00AFD0" stroke-width="2" stroke-miterlimit="10" stroke-linecap="square"/>
<path d="M15.822 19.954H13.386V22.334H11.58V19.954H9.15804V18.246H11.58V15.866H13.386V18.246H15.822V19.954ZM24.3201 22.152V24H16.9141V22.53L20.6941 18.96C21.0955 18.5773 21.3661 18.2507 21.5061 17.98C21.6461 17.7 21.7161 17.4247 21.7161 17.154C21.7161 16.762 21.5808 16.4633 21.3101 16.258C21.0488 16.0433 20.6615 15.936 20.1481 15.936C19.7188 15.936 19.3315 16.02 18.9861 16.188C18.6408 16.3467 18.3515 16.5893 18.1181 16.916L16.4661 15.852C16.8488 15.2827 17.3761 14.8393 18.0481 14.522C18.7201 14.1953 19.4901 14.032 20.3581 14.032C21.0861 14.032 21.7208 14.1533 22.2621 14.396C22.8128 14.6293 23.2375 14.9653 23.5361 15.404C23.8441 15.8333 23.9981 16.342 23.9981 16.93C23.9981 17.462 23.8861 17.9613 23.6621 18.428C23.4381 18.8947 23.0041 19.4267 22.3601 20.024L20.1061 22.152H24.3201Z" fill="#00AFD0"/>
</svg>
