<svg width="33" height="38" viewBox="0 0 33 38" fill="none" xmlns="http://www.w3.org/2000/svg">
<path d="M7.53101 35.5929H32.5969V11.7399L28.9583 14.9742L25.3197 12.9527L21.6811 14.5699L18.4468 12.9527L13.9996 14.9742L9.95674 12.9527L7.53101 14.5699V35.5929Z" fill="#DDF9FF"/>
<path d="M3.48775 24.2728L1.46631 26.6985V27.5071H11.9778V27.1028L9.95638 23.8685L9.55209 22.6556H3.48775V24.2728Z" fill="white"/>
<path d="M2.67932 21.8471L3.08361 22.6557H9.14795L9.55223 22.2514H10.3608V21.4428V20.23L9.95652 19.4214H3.08361L2.67932 20.23V21.0385V21.8471Z" fill="#DDF9FF"/>
<rect x="1.06238" y="27.5072" width="10.5115" height="5.66005" fill="#DDF9FF"/>
<path d="M11.5742 31.1458H11.9784L14.4042 35.1886L13.9999 35.5929L12.3827 36.4015L10.7656 36.8058L9.55271 36.4015L8.74413 35.5929L8.33984 34.3801V33.5715L9.14842 32.7629L11.5742 31.1458Z" fill="white"/>
<mask id="path-6-inside-1" fill="white">
<path d="M32.4099 30.3193C32.5663 30.3193 32.7164 30.2572 32.827 30.1465C32.9376 30.0359 32.9998 29.8859 32.9998 29.7294V9.67331C32.9998 9.56651 32.9708 9.46172 32.9159 9.3701C32.8611 9.27849 32.7823 9.20349 32.6882 9.15311C32.594 9.10272 32.4879 9.07885 32.3813 9.08403C32.2746 9.08921 32.1713 9.12325 32.0825 9.18253L31.7769 9.38604C31.6508 8.43143 31.2158 7.54431 30.5382 6.86015C30.68 6.81775 30.8247 6.78581 30.9712 6.76459L31.308 6.71857C31.3848 6.70812 31.4587 6.68264 31.5256 6.6436C31.5926 6.60456 31.6511 6.55272 31.698 6.49105C31.7449 6.42937 31.7792 6.35906 31.7989 6.28413C31.8186 6.20921 31.8234 6.13113 31.8129 6.05436C31.8025 5.9776 31.777 5.90364 31.738 5.83672C31.6989 5.76979 31.6471 5.71122 31.5854 5.66433C31.5237 5.61744 31.4534 5.58316 31.3785 5.56344C31.3036 5.54373 31.2255 5.53896 31.1487 5.54942L30.8113 5.59543C30.3261 5.66237 29.8563 5.81306 29.4227 6.0408C28.9062 5.76995 28.3403 5.60592 27.759 5.55849C27.1777 5.51106 26.5928 5.5812 26.0391 5.76473C26.3439 5.36132 26.5095 4.86991 26.511 4.36434C26.511 3.73855 26.2624 3.13839 25.8199 2.69589C25.3774 2.25339 24.7773 2.0048 24.1515 2.0048C23.9672 2.00473 23.7835 2.02731 23.6047 2.07205C23.3335 1.68682 22.9737 1.37246 22.5555 1.15545C22.1374 0.938445 21.6732 0.825167 21.2021 0.825167C20.731 0.825167 20.2668 0.938445 19.8486 1.15545C19.4305 1.37246 19.0706 1.68682 18.7995 2.07205C18.6206 2.02735 18.437 2.00476 18.2526 2.0048C17.6268 2.0048 17.0267 2.25339 16.5842 2.69589C16.1417 3.13839 15.8931 3.73855 15.8931 4.36434C15.893 4.54868 15.9156 4.73233 15.9603 4.91117C15.6373 5.13743 15.3634 5.42666 15.155 5.76147C14.9467 6.09628 14.8081 6.46977 14.7477 6.85948C14.6873 7.2492 14.7063 7.6471 14.8036 8.02927C14.9009 8.41145 15.0745 8.77002 15.3138 9.08342C15.229 9.1972 15.1523 9.31685 15.0844 9.44149L12.2358 4.50237L11.6459 3.47951C11.2973 2.87534 10.833 2.34581 10.2796 1.92116C9.72615 1.49652 9.09449 1.1851 8.42067 1.00471C7.74684 0.824308 7.04408 0.778468 6.35253 0.869805C5.66098 0.961143 4.99421 1.18787 4.39033 1.53702C3.71365 1.92882 3.21998 2.57301 3.01761 3.32829C2.81524 4.08358 2.9207 4.8883 3.31084 5.56594L3.98508 6.73332C4.06386 6.8677 4.19259 6.96547 4.34319 7.00528C4.49378 7.04509 4.65401 7.02373 4.78891 6.94584C4.92381 6.86796 5.02243 6.73987 5.06324 6.58955C5.10406 6.43922 5.08375 6.27885 5.00676 6.14344L4.33134 4.97605C4.21502 4.77468 4.13952 4.55235 4.10918 4.32178C4.07883 4.0912 4.09423 3.85691 4.15449 3.6323C4.21476 3.40768 4.3187 3.19714 4.46038 3.01273C4.60207 2.82831 4.77871 2.67363 4.98022 2.55752C5.44985 2.28643 5.96827 2.1105 6.5059 2.03976C7.04352 1.96903 7.58981 2.00488 8.11358 2.14527C8.63735 2.28566 9.12834 2.52784 9.55851 2.85798C9.98868 3.18813 10.3496 3.59977 10.6207 4.0694L10.9156 4.57965L8.87287 5.75942C8.80575 5.79815 8.74691 5.84973 8.69972 5.9112C8.65253 5.97267 8.61791 6.04283 8.59783 6.11768C8.57775 6.19254 8.57262 6.27061 8.58272 6.34744C8.59281 6.42428 8.61795 6.49838 8.65668 6.5655C8.69541 6.63262 8.74698 6.69146 8.80846 6.73865C8.86993 6.78584 8.94009 6.82046 9.01494 6.84054C9.08979 6.86061 9.16787 6.86575 9.2447 6.85565C9.32154 6.84556 9.39563 6.82042 9.46276 6.78169L11.5061 5.60192L12.3909 7.13562L10.3476 8.31539C10.2451 8.37542 10.1632 8.46497 10.1124 8.57233C10.0617 8.67969 10.0445 8.79986 10.0632 8.91713C10.0819 9.0344 10.1355 9.1433 10.2171 9.2296C10.2987 9.31589 10.4044 9.37555 10.5204 9.40078L7.8972 11.148L6.08743 8.01396C6.00921 7.8784 5.88034 7.77947 5.72917 7.73892C5.578 7.69838 5.41692 7.71955 5.28135 7.79777C5.14579 7.87599 5.04686 8.00486 5.00631 8.15603C4.96577 8.3072 4.98694 8.46829 5.06516 8.60385L6.00898 10.2396L4.4216 9.18135C4.33269 9.12234 4.22944 9.08855 4.12285 9.08358C4.01626 9.07861 3.91031 9.10265 3.8163 9.15314C3.72229 9.20362 3.64374 9.27866 3.58901 9.37027C3.53428 9.46187 3.50542 9.5666 3.5055 9.67331L3.34906 17.7624C3.34906 17.9188 3.41121 18.0688 3.52183 18.1795C3.63245 18.2901 3.78249 18.3522 3.93894 18.3522C4.09539 18.3522 4.24543 18.2901 4.35605 18.1795C4.46668 18.0688 4.52883 17.9188 4.52883 17.7624L4.68527 10.7758L7.30731 12.5236C7.40425 12.5883 7.51817 12.6228 7.6347 12.6228C7.75123 12.6228 7.86515 12.5883 7.96209 12.5236L11.174 10.3812L14.3859 12.5225C14.4829 12.5871 14.5968 12.6216 14.7133 12.6216C14.8299 12.6216 14.9438 12.5871 15.0407 12.5225L18.2526 10.3812L21.4646 12.5225C21.5615 12.5871 21.6754 12.6216 21.792 12.6216C21.9085 12.6216 22.0224 12.5871 22.1193 12.5225L24.7414 10.7752V35.0384H17.0729C16.9164 35.0384 16.7664 35.1005 16.6558 35.2112C16.5451 35.3218 16.483 35.4718 16.483 35.6283C16.483 35.7847 16.5451 35.9348 16.6558 36.0454C16.7664 36.156 16.9164 36.2182 17.0729 36.2182H32.4099C32.5663 36.2182 32.7164 36.156 32.827 36.0454C32.9376 35.9348 32.9998 35.7847 32.9998 35.6283V32.089C32.9998 31.9325 32.9376 31.7825 32.827 31.6718C32.7164 31.5612 32.5663 31.4991 32.4099 31.4991C32.2534 31.4991 32.1034 31.5612 31.9928 31.6718C31.8822 31.7825 31.82 31.9325 31.82 32.089V34.2043L29.4605 31.8447V28.5496C29.4605 28.3932 29.3983 28.2432 29.2877 28.1325C29.1771 28.0219 29.027 27.9598 28.8706 27.9598C28.7141 27.9598 28.5641 28.0219 28.4535 28.1325C28.3428 28.2432 28.2807 28.3932 28.2807 28.5496V31.8447L25.9212 34.2043V10.7752L28.2807 12.3484V19.7014C28.2807 19.8578 28.3428 20.0079 28.4535 20.1185C28.5641 20.2291 28.7141 20.2912 28.8706 20.2912C29.027 20.2912 29.1771 20.2291 29.2877 20.1185C29.3983 20.0079 29.4605 19.8578 29.4605 19.7014V12.3484L31.82 10.7758V29.7294C31.82 29.8859 31.8822 30.0359 31.9928 30.1465C32.1034 30.2572 32.2534 30.3193 32.4099 30.3193ZM28.335 6.86369C28.1222 7.08802 27.9345 7.33487 27.7752 7.59986C27.7336 7.66629 27.7057 7.74033 27.693 7.81767C27.6804 7.895 27.6833 7.97408 27.7016 8.05029C27.7198 8.12649 27.7531 8.19829 27.7994 8.26149C27.8457 8.32469 27.9042 8.37803 27.9714 8.4184C28.0385 8.45876 28.1131 8.48534 28.1906 8.49657C28.2682 8.50781 28.3472 8.50348 28.423 8.48384C28.4989 8.4642 28.5701 8.42965 28.6324 8.38219C28.6948 8.33473 28.7471 8.27533 28.7862 8.20745C28.9591 7.91994 29.1784 7.66302 29.4351 7.44708C29.8115 7.75066 30.1151 8.13469 30.3236 8.57097C30.5322 9.00725 30.6404 9.48469 30.6402 9.96825C30.6402 10.0314 30.6302 10.0915 30.6261 10.1535L28.8706 11.325L25.6587 9.18371C25.5618 9.11865 25.4479 9.08375 25.3313 9.08342C25.3309 8.6685 25.2197 8.26121 25.0092 7.90365C25.0588 7.81837 25.1031 7.73011 25.1419 7.63939C25.5561 7.23626 26.0708 6.95163 26.6324 6.81519C27.1941 6.67875 27.782 6.6955 28.335 6.86369ZM11.5014 9.18253C11.4503 9.14872 11.3941 9.12323 11.3351 9.10702L12.9808 8.1573L14.7823 11.2778L14.7133 11.325L11.5014 9.18253ZM21.792 11.325L19.3941 9.7264C20.0747 8.46998 21.1734 7.49126 22.4998 6.95984C22.6452 6.90164 22.7614 6.78809 22.823 6.64417C22.8847 6.50024 22.8866 6.33774 22.8284 6.1924C22.7702 6.04706 22.6566 5.93079 22.5127 5.86917C22.3688 5.80755 22.2063 5.80563 22.0609 5.86383C21.3839 6.13751 20.7517 6.51134 20.1857 6.97281C20.2402 6.24752 20.179 5.51818 20.0046 4.81206C19.9862 4.73644 19.9531 4.66521 19.9071 4.60246C19.861 4.5397 19.803 4.48668 19.7364 4.44644C19.6698 4.40619 19.5959 4.37953 19.519 4.36797C19.442 4.35642 19.3635 4.36021 19.288 4.37912C19.2126 4.39803 19.1416 4.43169 19.0791 4.47816C19.0167 4.52463 18.9641 4.58299 18.9243 4.64988C18.8846 4.71677 18.8584 4.79087 18.8474 4.86791C18.8364 4.94495 18.8408 5.0234 18.8602 5.09875C19.1974 6.44704 19.0282 7.87217 18.3848 9.10407C18.3068 9.08517 18.2258 9.08249 18.1467 9.09618C18.0677 9.10988 17.9923 9.13967 17.9253 9.18371L15.9303 10.5139C16.0071 10.1305 16.2094 9.78369 16.5054 9.5282C16.5682 9.47284 16.6184 9.40476 16.6529 9.32849C16.6873 9.25221 16.7051 9.16947 16.7051 9.08578C16.7051 9.00209 16.6873 8.91936 16.6529 8.84308C16.6184 8.7668 16.5682 8.69873 16.5054 8.64337C16.3132 8.47929 16.1589 8.27542 16.0531 8.04586C15.9474 7.81629 15.8928 7.56651 15.8931 7.31377C15.8946 6.97482 15.9932 6.64339 16.1772 6.35873C16.3612 6.07406 16.6229 5.84807 16.9313 5.70751C17.0039 5.67433 17.069 5.62675 17.1227 5.56767C17.1764 5.50858 17.2175 5.43921 17.2436 5.36377C17.2697 5.28832 17.2802 5.20837 17.2745 5.12875C17.2687 5.04912 17.2469 4.97149 17.2103 4.90055C17.1219 4.73553 17.0747 4.55155 17.0729 4.36434C17.0743 4.16315 17.1272 3.96568 17.2265 3.79068C17.3258 3.61569 17.4682 3.469 17.6401 3.36455C17.8121 3.2601 18.0079 3.20136 18.209 3.19391C18.41 3.18647 18.6096 3.23057 18.7888 3.32201C18.8598 3.35861 18.9374 3.38043 19.017 3.38615C19.0967 3.39187 19.1766 3.38137 19.2521 3.35529C19.3275 3.3292 19.3969 3.28807 19.456 3.23439C19.515 3.18071 19.5626 3.1156 19.5958 3.043C19.7351 2.73356 19.9607 2.47092 20.2457 2.28667C20.5306 2.10243 20.8627 2.00441 21.2021 2.00441C21.5414 2.00441 21.8735 2.10243 22.1585 2.28667C22.4434 2.47092 22.6691 2.73356 22.8083 3.043C22.8415 3.11568 22.8891 3.18087 22.9482 3.23462C23.0073 3.28836 23.0767 3.32953 23.1522 3.35564C23.2277 3.38124 23.3076 3.39146 23.3872 3.38569C23.4667 3.37991 23.5443 3.35826 23.6153 3.32201C23.7616 3.24546 23.9225 3.20068 24.0874 3.19059C24.2522 3.1805 24.4174 3.20533 24.572 3.26346C24.7266 3.32159 24.8672 3.41171 24.9846 3.52792C25.1019 3.64413 25.1934 3.78381 25.2531 3.93783C25.3128 4.09185 25.3393 4.25673 25.3308 4.42168C25.3224 4.58664 25.2792 4.74795 25.2041 4.89507C25.129 5.04218 25.0237 5.17179 24.8951 5.2754C24.7664 5.37901 24.6174 5.4543 24.4576 5.49633C24.3773 5.51809 24.3024 5.55661 24.238 5.60936C24.1736 5.66211 24.1211 5.72789 24.084 5.80239C24.0468 5.87688 24.0258 5.9584 24.0224 6.04158C24.019 6.12476 24.0332 6.20772 24.0642 6.28501C24.121 6.42439 24.1507 6.57336 24.1515 6.72388C24.1506 7.01488 24.0407 7.29498 23.8436 7.50902C23.7461 7.61734 23.6921 7.75792 23.6921 7.90365C23.6921 8.04939 23.7461 8.18997 23.8436 8.29829C23.997 8.46537 24.0987 8.67339 24.1362 8.89711C24.1738 9.12084 24.1456 9.35065 24.0551 9.55867C23.9646 9.7667 23.8157 9.94399 23.6264 10.069C23.4372 10.1941 23.2157 10.2615 22.9888 10.2632C22.9735 10.2632 22.911 10.2543 22.8962 10.2538C22.8033 10.2476 22.7102 10.2637 22.6248 10.3008C22.5393 10.3378 22.464 10.3948 22.405 10.4669C22.346 10.5389 22.3051 10.6241 22.2857 10.7152C22.2663 10.8062 22.2689 10.9007 22.2934 10.9905L21.792 11.325ZM28.8706 32.9231L30.9859 35.0384H26.7552L28.8706 32.9231Z"/>
</mask>
<path d="M32.4099 30.3193C32.5663 30.3193 32.7164 30.2572 32.827 30.1465C32.9376 30.0359 32.9998 29.8859 32.9998 29.7294V9.67331C32.9998 9.56651 32.9708 9.46172 32.9159 9.3701C32.8611 9.27849 32.7823 9.20349 32.6882 9.15311C32.594 9.10272 32.4879 9.07885 32.3813 9.08403C32.2746 9.08921 32.1713 9.12325 32.0825 9.18253L31.7769 9.38604C31.6508 8.43143 31.2158 7.54431 30.5382 6.86015C30.68 6.81775 30.8247 6.78581 30.9712 6.76459L31.308 6.71857C31.3848 6.70812 31.4587 6.68264 31.5256 6.6436C31.5926 6.60456 31.6511 6.55272 31.698 6.49105C31.7449 6.42937 31.7792 6.35906 31.7989 6.28413C31.8186 6.20921 31.8234 6.13113 31.8129 6.05436C31.8025 5.9776 31.777 5.90364 31.738 5.83672C31.6989 5.76979 31.6471 5.71122 31.5854 5.66433C31.5237 5.61744 31.4534 5.58316 31.3785 5.56344C31.3036 5.54373 31.2255 5.53896 31.1487 5.54942L30.8113 5.59543C30.3261 5.66237 29.8563 5.81306 29.4227 6.0408C28.9062 5.76995 28.3403 5.60592 27.759 5.55849C27.1777 5.51106 26.5928 5.5812 26.0391 5.76473C26.3439 5.36132 26.5095 4.86991 26.511 4.36434C26.511 3.73855 26.2624 3.13839 25.8199 2.69589C25.3774 2.25339 24.7773 2.0048 24.1515 2.0048C23.9672 2.00473 23.7835 2.02731 23.6047 2.07205C23.3335 1.68682 22.9737 1.37246 22.5555 1.15545C22.1374 0.938445 21.6732 0.825167 21.2021 0.825167C20.731 0.825167 20.2668 0.938445 19.8486 1.15545C19.4305 1.37246 19.0706 1.68682 18.7995 2.07205C18.6206 2.02735 18.437 2.00476 18.2526 2.0048C17.6268 2.0048 17.0267 2.25339 16.5842 2.69589C16.1417 3.13839 15.8931 3.73855 15.8931 4.36434C15.893 4.54868 15.9156 4.73233 15.9603 4.91117C15.6373 5.13743 15.3634 5.42666 15.155 5.76147C14.9467 6.09628 14.8081 6.46977 14.7477 6.85948C14.6873 7.2492 14.7063 7.6471 14.8036 8.02927C14.9009 8.41145 15.0745 8.77002 15.3138 9.08342C15.229 9.1972 15.1523 9.31685 15.0844 9.44149L12.2358 4.50237L11.6459 3.47951C11.2973 2.87534 10.833 2.34581 10.2796 1.92116C9.72615 1.49652 9.09449 1.1851 8.42067 1.00471C7.74684 0.824308 7.04408 0.778468 6.35253 0.869805C5.66098 0.961143 4.99421 1.18787 4.39033 1.53702C3.71365 1.92882 3.21998 2.57301 3.01761 3.32829C2.81524 4.08358 2.9207 4.8883 3.31084 5.56594L3.98508 6.73332C4.06386 6.8677 4.19259 6.96547 4.34319 7.00528C4.49378 7.04509 4.65401 7.02373 4.78891 6.94584C4.92381 6.86796 5.02243 6.73987 5.06324 6.58955C5.10406 6.43922 5.08375 6.27885 5.00676 6.14344L4.33134 4.97605C4.21502 4.77468 4.13952 4.55235 4.10918 4.32178C4.07883 4.0912 4.09423 3.85691 4.15449 3.6323C4.21476 3.40768 4.3187 3.19714 4.46038 3.01273C4.60207 2.82831 4.77871 2.67363 4.98022 2.55752C5.44985 2.28643 5.96827 2.1105 6.5059 2.03976C7.04352 1.96903 7.58981 2.00488 8.11358 2.14527C8.63735 2.28566 9.12834 2.52784 9.55851 2.85798C9.98868 3.18813 10.3496 3.59977 10.6207 4.0694L10.9156 4.57965L8.87287 5.75942C8.80575 5.79815 8.74691 5.84973 8.69972 5.9112C8.65253 5.97267 8.61791 6.04283 8.59783 6.11768C8.57775 6.19254 8.57262 6.27061 8.58272 6.34744C8.59281 6.42428 8.61795 6.49838 8.65668 6.5655C8.69541 6.63262 8.74698 6.69146 8.80846 6.73865C8.86993 6.78584 8.94009 6.82046 9.01494 6.84054C9.08979 6.86061 9.16787 6.86575 9.2447 6.85565C9.32154 6.84556 9.39563 6.82042 9.46276 6.78169L11.5061 5.60192L12.3909 7.13562L10.3476 8.31539C10.2451 8.37542 10.1632 8.46497 10.1124 8.57233C10.0617 8.67969 10.0445 8.79986 10.0632 8.91713C10.0819 9.0344 10.1355 9.1433 10.2171 9.2296C10.2987 9.31589 10.4044 9.37555 10.5204 9.40078L7.8972 11.148L6.08743 8.01396C6.00921 7.8784 5.88034 7.77947 5.72917 7.73892C5.578 7.69838 5.41692 7.71955 5.28135 7.79777C5.14579 7.87599 5.04686 8.00486 5.00631 8.15603C4.96577 8.3072 4.98694 8.46829 5.06516 8.60385L6.00898 10.2396L4.4216 9.18135C4.33269 9.12234 4.22944 9.08855 4.12285 9.08358C4.01626 9.07861 3.91031 9.10265 3.8163 9.15314C3.72229 9.20362 3.64374 9.27866 3.58901 9.37027C3.53428 9.46187 3.50542 9.5666 3.5055 9.67331L3.34906 17.7624C3.34906 17.9188 3.41121 18.0688 3.52183 18.1795C3.63245 18.2901 3.78249 18.3522 3.93894 18.3522C4.09539 18.3522 4.24543 18.2901 4.35605 18.1795C4.46668 18.0688 4.52883 17.9188 4.52883 17.7624L4.68527 10.7758L7.30731 12.5236C7.40425 12.5883 7.51817 12.6228 7.6347 12.6228C7.75123 12.6228 7.86515 12.5883 7.96209 12.5236L11.174 10.3812L14.3859 12.5225C14.4829 12.5871 14.5968 12.6216 14.7133 12.6216C14.8299 12.6216 14.9438 12.5871 15.0407 12.5225L18.2526 10.3812L21.4646 12.5225C21.5615 12.5871 21.6754 12.6216 21.792 12.6216C21.9085 12.6216 22.0224 12.5871 22.1193 12.5225L24.7414 10.7752V35.0384H17.0729C16.9164 35.0384 16.7664 35.1005 16.6558 35.2112C16.5451 35.3218 16.483 35.4718 16.483 35.6283C16.483 35.7847 16.5451 35.9348 16.6558 36.0454C16.7664 36.156 16.9164 36.2182 17.0729 36.2182H32.4099C32.5663 36.2182 32.7164 36.156 32.827 36.0454C32.9376 35.9348 32.9998 35.7847 32.9998 35.6283V32.089C32.9998 31.9325 32.9376 31.7825 32.827 31.6718C32.7164 31.5612 32.5663 31.4991 32.4099 31.4991C32.2534 31.4991 32.1034 31.5612 31.9928 31.6718C31.8822 31.7825 31.82 31.9325 31.82 32.089V34.2043L29.4605 31.8447V28.5496C29.4605 28.3932 29.3983 28.2432 29.2877 28.1325C29.1771 28.0219 29.027 27.9598 28.8706 27.9598C28.7141 27.9598 28.5641 28.0219 28.4535 28.1325C28.3428 28.2432 28.2807 28.3932 28.2807 28.5496V31.8447L25.9212 34.2043V10.7752L28.2807 12.3484V19.7014C28.2807 19.8578 28.3428 20.0079 28.4535 20.1185C28.5641 20.2291 28.7141 20.2912 28.8706 20.2912C29.027 20.2912 29.1771 20.2291 29.2877 20.1185C29.3983 20.0079 29.4605 19.8578 29.4605 19.7014V12.3484L31.82 10.7758V29.7294C31.82 29.8859 31.8822 30.0359 31.9928 30.1465C32.1034 30.2572 32.2534 30.3193 32.4099 30.3193ZM28.335 6.86369C28.1222 7.08802 27.9345 7.33487 27.7752 7.59986C27.7336 7.66629 27.7057 7.74033 27.693 7.81767C27.6804 7.895 27.6833 7.97408 27.7016 8.05029C27.7198 8.12649 27.7531 8.19829 27.7994 8.26149C27.8457 8.32469 27.9042 8.37803 27.9714 8.4184C28.0385 8.45876 28.1131 8.48534 28.1906 8.49657C28.2682 8.50781 28.3472 8.50348 28.423 8.48384C28.4989 8.4642 28.5701 8.42965 28.6324 8.38219C28.6948 8.33473 28.7471 8.27533 28.7862 8.20745C28.9591 7.91994 29.1784 7.66302 29.4351 7.44708C29.8115 7.75066 30.1151 8.13469 30.3236 8.57097C30.5322 9.00725 30.6404 9.48469 30.6402 9.96825C30.6402 10.0314 30.6302 10.0915 30.6261 10.1535L28.8706 11.325L25.6587 9.18371C25.5618 9.11865 25.4479 9.08375 25.3313 9.08342C25.3309 8.6685 25.2197 8.26121 25.0092 7.90365C25.0588 7.81837 25.1031 7.73011 25.1419 7.63939C25.5561 7.23626 26.0708 6.95163 26.6324 6.81519C27.1941 6.67875 27.782 6.6955 28.335 6.86369ZM11.5014 9.18253C11.4503 9.14872 11.3941 9.12323 11.3351 9.10702L12.9808 8.1573L14.7823 11.2778L14.7133 11.325L11.5014 9.18253ZM21.792 11.325L19.3941 9.7264C20.0747 8.46998 21.1734 7.49126 22.4998 6.95984C22.6452 6.90164 22.7614 6.78809 22.823 6.64417C22.8847 6.50024 22.8866 6.33774 22.8284 6.1924C22.7702 6.04706 22.6566 5.93079 22.5127 5.86917C22.3688 5.80755 22.2063 5.80563 22.0609 5.86383C21.3839 6.13751 20.7517 6.51134 20.1857 6.97281C20.2402 6.24752 20.179 5.51818 20.0046 4.81206C19.9862 4.73644 19.9531 4.66521 19.9071 4.60246C19.861 4.5397 19.803 4.48668 19.7364 4.44644C19.6698 4.40619 19.5959 4.37953 19.519 4.36797C19.442 4.35642 19.3635 4.36021 19.288 4.37912C19.2126 4.39803 19.1416 4.43169 19.0791 4.47816C19.0167 4.52463 18.9641 4.58299 18.9243 4.64988C18.8846 4.71677 18.8584 4.79087 18.8474 4.86791C18.8364 4.94495 18.8408 5.0234 18.8602 5.09875C19.1974 6.44704 19.0282 7.87217 18.3848 9.10407C18.3068 9.08517 18.2258 9.08249 18.1467 9.09618C18.0677 9.10988 17.9923 9.13967 17.9253 9.18371L15.9303 10.5139C16.0071 10.1305 16.2094 9.78369 16.5054 9.5282C16.5682 9.47284 16.6184 9.40476 16.6529 9.32849C16.6873 9.25221 16.7051 9.16947 16.7051 9.08578C16.7051 9.00209 16.6873 8.91936 16.6529 8.84308C16.6184 8.7668 16.5682 8.69873 16.5054 8.64337C16.3132 8.47929 16.1589 8.27542 16.0531 8.04586C15.9474 7.81629 15.8928 7.56651 15.8931 7.31377C15.8946 6.97482 15.9932 6.64339 16.1772 6.35873C16.3612 6.07406 16.6229 5.84807 16.9313 5.70751C17.0039 5.67433 17.069 5.62675 17.1227 5.56767C17.1764 5.50858 17.2175 5.43921 17.2436 5.36377C17.2697 5.28832 17.2802 5.20837 17.2745 5.12875C17.2687 5.04912 17.2469 4.97149 17.2103 4.90055C17.1219 4.73553 17.0747 4.55155 17.0729 4.36434C17.0743 4.16315 17.1272 3.96568 17.2265 3.79068C17.3258 3.61569 17.4682 3.469 17.6401 3.36455C17.8121 3.2601 18.0079 3.20136 18.209 3.19391C18.41 3.18647 18.6096 3.23057 18.7888 3.32201C18.8598 3.35861 18.9374 3.38043 19.017 3.38615C19.0967 3.39187 19.1766 3.38137 19.2521 3.35529C19.3275 3.3292 19.3969 3.28807 19.456 3.23439C19.515 3.18071 19.5626 3.1156 19.5958 3.043C19.7351 2.73356 19.9607 2.47092 20.2457 2.28667C20.5306 2.10243 20.8627 2.00441 21.2021 2.00441C21.5414 2.00441 21.8735 2.10243 22.1585 2.28667C22.4434 2.47092 22.6691 2.73356 22.8083 3.043C22.8415 3.11568 22.8891 3.18087 22.9482 3.23462C23.0073 3.28836 23.0767 3.32953 23.1522 3.35564C23.2277 3.38124 23.3076 3.39146 23.3872 3.38569C23.4667 3.37991 23.5443 3.35826 23.6153 3.32201C23.7616 3.24546 23.9225 3.20068 24.0874 3.19059C24.2522 3.1805 24.4174 3.20533 24.572 3.26346C24.7266 3.32159 24.8672 3.41171 24.9846 3.52792C25.1019 3.64413 25.1934 3.78381 25.2531 3.93783C25.3128 4.09185 25.3393 4.25673 25.3308 4.42168C25.3224 4.58664 25.2792 4.74795 25.2041 4.89507C25.129 5.04218 25.0237 5.17179 24.8951 5.2754C24.7664 5.37901 24.6174 5.4543 24.4576 5.49633C24.3773 5.51809 24.3024 5.55661 24.238 5.60936C24.1736 5.66211 24.1211 5.72789 24.084 5.80239C24.0468 5.87688 24.0258 5.9584 24.0224 6.04158C24.019 6.12476 24.0332 6.20772 24.0642 6.28501C24.121 6.42439 24.1507 6.57336 24.1515 6.72388C24.1506 7.01488 24.0407 7.29498 23.8436 7.50902C23.7461 7.61734 23.6921 7.75792 23.6921 7.90365C23.6921 8.04939 23.7461 8.18997 23.8436 8.29829C23.997 8.46537 24.0987 8.67339 24.1362 8.89711C24.1738 9.12084 24.1456 9.35065 24.0551 9.55867C23.9646 9.7667 23.8157 9.94399 23.6264 10.069C23.4372 10.1941 23.2157 10.2615 22.9888 10.2632C22.9735 10.2632 22.911 10.2543 22.8962 10.2538C22.8033 10.2476 22.7102 10.2637 22.6248 10.3008C22.5393 10.3378 22.464 10.3948 22.405 10.4669C22.346 10.5389 22.3051 10.6241 22.2857 10.7152C22.2663 10.8062 22.2689 10.9007 22.2934 10.9905L21.792 11.325ZM28.8706 32.9231L30.9859 35.0384H26.7552L28.8706 32.9231Z" fill="#124E78" stroke="white" stroke-width="0.0524196" stroke-linejoin="round" mask="url(#path-6-inside-1)"/>
<path d="M28.4628 22.8328C28.571 22.7246 28.7177 22.6639 28.8706 22.6639C29.0236 22.6639 29.1703 22.7246 29.2785 22.8328C29.3867 22.941 29.4474 23.0877 29.4474 23.2406V25.6002C29.4474 25.7532 29.3867 25.8999 29.2785 26.008C29.1703 26.1162 29.0236 26.177 28.8706 26.177C28.7177 26.177 28.571 26.1162 28.4628 26.008C28.3546 25.8999 28.2939 25.7532 28.2939 25.6002V23.2406C28.2939 23.0877 28.3546 22.941 28.4628 22.8328Z" fill="#124E78" stroke="#DDF9FF" stroke-width="0.0262098"/>
<path d="M16.483 15.5852H21.7919C21.9449 15.5852 22.0916 15.646 22.1998 15.7542C22.3079 15.8624 22.3687 16.0091 22.3687 16.162C22.3687 16.315 22.3079 16.4617 22.1998 16.5699C22.0916 16.678 21.9449 16.7388 21.7919 16.7388H16.483C16.33 16.7388 16.1833 16.678 16.0751 16.5699C15.9669 16.4617 15.9062 16.315 15.9062 16.162C15.9062 16.0091 15.9669 15.8624 16.0751 15.7542C16.1833 15.646 16.33 15.5852 16.483 15.5852Z" fill="#124E78" stroke="#DDF9FF" stroke-width="0.0262098"/>
<path d="M18.2526 18.5347H21.7919C21.9449 18.5347 22.0916 18.5955 22.1998 18.7036C22.3079 18.8118 22.3687 18.9585 22.3687 19.1115C22.3687 19.2645 22.3079 19.4112 22.1998 19.5193C22.0916 19.6275 21.9449 19.6883 21.7919 19.6883H18.2526C18.0996 19.6883 17.9529 19.6275 17.8448 19.5193C17.7366 19.4112 17.6758 19.2645 17.6758 19.1115C17.6758 18.9585 17.7366 18.8118 17.8448 18.7036C17.9529 18.5955 18.0996 18.5347 18.2526 18.5347Z" fill="#124E78" stroke="#DDF9FF" stroke-width="0.0262098"/>
<path d="M4.88128 23.5562C4.68651 23.5562 4.52844 23.7142 4.52844 23.909C4.52844 24.1038 4.68651 24.2618 4.88128 24.2618C5.07605 24.2618 5.23412 24.1038 5.23412 23.909C5.23412 23.7142 5.07605 23.5562 4.88128 23.5562Z" fill="#124E78" stroke="#124E78" stroke-width="0.174732"/>
<path d="M8.05634 30.154H6.9979V29.0955C6.9979 28.9007 6.8399 28.7427 6.64506 28.7427C6.45022 28.7427 6.29226 28.9007 6.29226 29.0955V30.154H5.23382C5.03898 30.154 4.88098 30.312 4.88098 30.5068C4.88098 30.7016 5.03898 30.8596 5.23382 30.8596H6.29226V31.918C6.29226 32.1129 6.45026 32.2709 6.64506 32.2709C6.83986 32.2709 6.9979 32.1129 6.9979 31.918V30.8596H8.05634C8.25117 30.8596 8.40917 30.7016 8.40917 30.5068C8.40917 30.3119 8.25121 30.154 8.05634 30.154Z" fill="#124E78" stroke="#124E78" stroke-width="0.174732"/>
<path d="M17.579 30.4714C16.799 29.1205 15.0745 28.6582 13.7234 29.4383L12.2902 30.2657V27.2018C12.2902 26.823 12.165 26.4472 11.9374 26.1434L10.1734 23.7913V22.7898C10.584 22.6441 10.879 22.252 10.879 21.792V20.169C10.8789 19.5854 10.4041 19.1106 9.82049 19.1106H3.46975C2.88612 19.1106 2.41128 19.5854 2.41128 20.169V21.792C2.41128 22.2519 2.70628 22.6442 3.11691 22.7898V23.7914L1.3527 26.1435C1.12526 26.4472 1 26.823 1 27.2018V34.0349C1 35.0076 1.79138 35.7989 2.76408 35.7989H8.43423C9.22533 37.125 10.9312 37.5688 12.2683 36.7967L16.546 34.327C17.8851 33.5536 18.3629 31.8296 17.579 30.4714ZM3.11691 20.169C3.11691 19.9745 3.2752 19.8162 3.46972 19.8162H9.82046C10.015 19.8162 10.1733 19.9745 10.1733 20.169V21.792C10.1733 21.9866 10.015 22.1448 9.82046 22.1448H3.46975C3.2752 22.1448 3.11695 21.9865 3.11695 21.792V20.169H3.11691ZM1.91738 26.5667L3.75199 24.1206C3.79778 24.0596 3.82255 23.9853 3.82255 23.9089V22.8505H9.46766V23.5561H6.2923C6.09747 23.5561 5.93947 23.7141 5.93947 23.909C5.93947 24.1038 6.09747 24.2618 6.2923 24.2618H9.64408L11.3727 26.5666C11.4857 26.7174 11.5559 26.8979 11.5771 27.0844H1.71315C1.73432 26.8979 1.8045 26.7174 1.91738 26.5667ZM2.76411 35.0933C2.18049 35.0933 1.70567 34.6185 1.70567 34.0349V33.6785H8.11584C8.00395 34.136 8.00469 34.6246 8.13281 35.0933H2.76411V35.0933ZM8.39256 32.9764H1.70564V27.7899H11.5846V30.6731L9.44571 31.9081C8.99976 32.1657 8.6393 32.5324 8.39256 32.9764ZM11.9155 36.1856C10.903 36.7703 9.60915 36.4245 9.02407 35.4113C8.43621 34.3883 8.79247 33.1003 9.79862 32.5191L11.7137 31.4134L13.8306 35.0799L11.9155 36.1856ZM16.1931 33.7159L14.4417 34.7271L12.3248 31.0605L14.0762 30.0494C15.0894 29.4645 16.3828 29.8109 16.9679 30.8241C17.5555 31.8425 17.1982 33.1355 16.1931 33.7159Z" fill="#124E78" stroke="#124E78" stroke-width="0.174732"/>
</svg>
