<svg width="114" height="73" viewBox="0 0 114 73" fill="none" xmlns="http://www.w3.org/2000/svg">
<path d="M75.4803 16L75.7945 38.8125H82.7067V39.7501L82.0783 41.0001L74.5378 42.8751C73.0715 43.3959 69.9506 44.5626 69.1965 45.0626C68.4425 45.5626 68.0445 49.8542 67.9398 51.9376L63.6875 70.5H111.312C110.475 65.8125 107.339 47.0626 105.328 45.0626C103.317 43.0626 100.511 42.3542 99.3587 42.2501C100.72 41.6251 103.695 40.2501 104.7 39.7501C105.705 39.2501 105.538 36.8334 105.328 35.6876C105.224 27.7709 104.951 11.5626 104.7 10.0626C104.386 8.18756 100.93 6.31256 99.3587 5.68747C97.7878 5.06239 95.2742 6.93747 93.3891 6.93747C91.881 6.93747 90.0377 6.10414 89.3046 5.68747C87.21 5.27081 82.3297 4.93747 79.5648 6.93747C76.7999 8.9375 75.6898 13.8125 75.4803 16Z" fill="#DDF9FF"/>
<path d="M76.1086 54.75H74.8518V61.625H76.1086V54.75Z" fill="white"/>
<path d="M103.129 54.75H101.872V61.625H103.129V54.75Z" fill="white"/>
<path d="M68.5679 61.6251H65.426L68.5679 47.2501L71.0814 44.1251L80.8213 41.6251L83.0206 39.4376L82.3923 36.3126L78.622 32.2501L76.4227 27.8751L77.051 22.2501H79.8788C79.774 24.0209 79.6274 28.1251 79.8788 30.3751C80.1301 32.6251 83.7537 36.1042 85.5342 37.5626V42.5626C85.5342 43.0626 81.9733 43.8126 80.1929 44.1251C79.5646 44.2292 77.5538 44.6251 74.5375 45.3751C71.5213 46.1251 70.9767 48.1876 71.0814 49.1251L68.5679 61.6251Z" fill="white"/>
<path d="M91.3966 31.2095C90.9923 30.8834 90.3988 30.9449 90.0709 31.3472C89.6901 31.814 89.1851 32.0713 88.6491 32.0713C88.113 32.0713 87.6081 31.814 87.2273 31.3472C86.8995 30.945 86.3058 30.8834 85.9015 31.2095C85.4972 31.5357 85.4354 32.126 85.7633 32.5282C86.498 33.4295 87.55 33.9463 88.6491 33.9463C89.7483 33.9463 90.8001 33.4294 91.5349 32.5282C91.8628 32.126 91.8009 31.5357 91.3966 31.2095Z" fill="white"/>
<path d="M84.3376 23.6252C83.817 23.6252 83.395 24.0449 83.395 24.5627V25.6338C83.395 26.1516 83.817 26.5713 84.3376 26.5713C84.8581 26.5713 85.2802 26.1516 85.2802 25.6338V24.5627C85.2802 24.0449 84.8581 23.6252 84.3376 23.6252Z" fill="white"/>
<path d="M92.9484 23.6252C92.4279 23.6252 92.0059 24.0449 92.0059 24.5627V25.6338C92.0059 26.1516 92.4278 26.5713 92.9484 26.5713C93.469 26.5713 93.891 26.1516 93.891 25.6338V24.5627C93.891 24.0449 93.469 23.6252 92.9484 23.6252Z" fill="white"/>
<path d="M90.7682 30.4404C90.3639 30.1142 89.7704 30.1757 89.4425 30.578C89.0617 31.0449 88.5567 31.3021 88.0207 31.3021C87.4846 31.3021 86.9797 31.0449 86.5989 30.578C86.2711 30.1759 85.6774 30.1142 85.2731 30.4404C84.8688 30.7665 84.807 31.3569 85.1349 31.759C85.8696 32.6604 86.9215 33.1771 88.0207 33.1771C89.1199 33.1771 90.1716 32.6603 90.9065 31.759C91.2344 31.3569 91.1725 30.7665 90.7682 30.4404Z" fill="#124E78"/>
<path d="M83.7092 23.0001C83.1886 23.0001 82.7666 23.4198 82.7666 23.9376V25.0087C82.7666 25.5264 83.1886 25.9462 83.7092 25.9462C84.2297 25.9462 84.6517 25.5264 84.6517 25.0087V23.9376C84.6517 23.4198 84.2297 23.0001 83.7092 23.0001Z" fill="#124E78"/>
<path d="M92.32 23.0001C91.7995 23.0001 91.3774 23.4198 91.3774 23.9376V25.0087C91.3774 25.5264 91.7993 25.9462 92.32 25.9462C92.8406 25.9462 93.2626 25.5264 93.2626 25.0087V23.9376C93.2626 23.4198 92.8406 23.0001 92.32 23.0001Z" fill="#124E78"/>
<path fill-rule="evenodd" clip-rule="evenodd" d="M103.537 43.1524C103.753 43.1975 107.549 43.9896 108.374 48.1009C109.548 54.0751 110.233 57.4104 110.632 59.3538C111.029 61.2872 111.144 61.8433 111.175 62.25H109.274C109.175 61.5592 108.704 59.4829 106.525 48.4677C105.986 45.7829 103.664 45.1379 103.121 44.9871C103.066 44.9717 103.029 44.9616 103.014 44.9548L97.4754 43.5894L91.6534 50.3911C89.7148 52.6556 86.7692 52.7969 84.7048 50.7941C84.6715 50.7618 84.6446 50.7359 84.618 50.7096C84.3588 50.4527 84.1383 50.1573 78.5287 43.5843L72.9688 44.9549L72.315 45.1467C71.4156 45.4868 69.8803 46.3652 69.4581 48.4681C67.2771 59.4962 66.8075 61.572 66.7089 62.25H64.8125C64.822 62.1261 64.8357 62.0006 64.8537 61.8738C64.854 61.8716 64.8542 61.8699 64.8542 61.8699C64.8558 61.8496 64.8614 61.8297 67.6091 48.1014C68.215 45.0836 70.423 43.8472 71.6853 43.3787C71.706 43.3711 71.7269 43.3642 71.7481 43.3579L72.4554 43.1504C72.4681 43.1468 72.4807 43.1432 72.4935 43.1401L82.1753 40.7534V40.4131H74.7848C73.2544 40.4131 72.0094 39.1748 72.0094 37.6526V16.5838C72.0094 8.68456 78.5073 2.19992 86.3335 2.25029C89.0486 2.26479 92.2 3.04092 94.362 4.2273C94.634 4.37631 94.8271 4.33879 95.1747 4.27128C95.479 4.21216 95.9016 4.13005 96.5993 4.13005C100.425 4.13005 103.624 7.75956 104.003 11.4892C104.017 11.6284 104.017 12.1907 104.017 12.4104C104.017 12.4298 104.017 12.4466 104.017 12.4601C104.018 12.9778 103.596 13.3981 103.075 13.3984C103.16 13.4362 102.133 13.3667 102.132 12.4616C102.131 11.8596 102.127 11.7024 102.125 11.6632C101.846 8.98406 99.5117 6.00531 96.5991 6.00531C96.2155 6.00531 95.8781 6.05979 95.5567 6.11169C94.8783 6.22125 94.271 6.31931 93.4511 5.86918C91.5445 4.82305 88.7466 4.13842 86.3233 4.12555C86.3015 4.12542 86.2797 4.1253 86.2578 4.1253C79.4941 4.1253 73.8949 9.75356 73.8949 16.5839V37.6527C73.8949 38.1408 74.2942 38.5379 74.7849 38.5379H82.1753V37.7587C81.1984 37.2342 80.2824 36.5766 79.4519 35.7882C76.9479 33.4112 75.5117 30.073 75.5117 26.6296V24.4752C75.5117 23.0506 76.7203 21.9146 78.1498 22.0003C78.173 22.0013 78.2033 22.0029 78.2406 22.0049C78.4279 22.0149 78.789 22.0344 79.2826 22.0344C87.0616 22.0346 91.5665 17.1147 93.1869 14.9212C93.5246 14.4639 94.0641 14.2218 94.634 14.2731C95.2033 14.3246 95.6924 14.6604 95.9421 15.1718C96.4756 16.2641 97.293 16.8894 98.3716 17.0304C99.4062 17.1656 100.222 17.9381 100.443 18.9152C101.056 19.0201 101.624 19.232 102.122 19.5275V16.8366C102.122 16.3186 102.544 15.8989 103.065 15.8989C103.585 15.8989 104.007 16.3186 104.007 16.8366V21.9765C104.132 22.5012 104.132 23.0456 104.007 23.5693V37.6525C104.007 39.1746 102.762 40.4129 101.232 40.4129H93.8078V40.7533C103.477 43.1371 103.501 43.1419 103.524 43.1492C103.524 43.1492 103.526 43.1499 103.528 43.1504C103.528 43.1504 103.531 43.1511 103.537 43.1524ZM100.695 62.25H102.58V55.5309C102.58 55.0129 102.158 54.5933 101.637 54.5933C101.117 54.5933 100.695 55.0131 100.695 55.5309V62.25ZM73.4369 62.25H75.3223V55.5309C75.3223 55.0129 74.9003 54.5933 74.3796 54.5933C73.8589 54.5933 73.4369 55.0131 73.4369 55.5309V62.25ZM102.122 22.2357C101.899 21.5985 101.292 21.0825 100.505 20.8496V24.6961C101.292 24.4634 101.899 23.9474 102.122 23.31V22.2357ZM100.505 26.6198V26.7929C100.505 31.5732 97.8048 35.7346 93.8078 37.813V38.5377H101.232C101.723 38.5377 102.122 38.1408 102.122 37.6526V26.0184C101.641 26.304 101.094 26.5115 100.505 26.6198ZM77.3973 26.6294C77.3973 29.5627 78.6207 32.4064 80.7538 34.4315C87.3903 40.7314 98.6196 36.1225 98.6196 26.793V19.4456C98.6196 19.1655 98.4074 18.9268 98.1261 18.89C97.0008 18.7428 95.483 18.1801 94.4481 16.3726C90.6097 21.3211 84.7959 24.2766 78.0365 23.8719C77.861 23.8619 77.705 23.925 77.589 24.0338C77.3786 24.2308 77.3826 24.4034 77.3975 25.0432C77.4058 25.3992 77.4174 25.8997 77.3973 26.6294ZM85.7552 49.1676C87.0655 50.7058 88.9042 50.7099 90.2176 49.1753L92.2007 46.8584H83.7882L85.7552 49.1676ZM82.191 44.9831H93.8061L95.4305 43.0853L92.6381 42.3969C92.3227 42.3192 92.0777 42.0886 91.9749 41.7963C91.9175 41.633 91.9177 41.5967 91.9221 40.8871C91.9248 40.4476 91.9292 39.7499 91.9224 38.6037C89.3944 39.4276 86.6551 39.4369 84.061 38.5769L84.0609 41.4777C84.0609 41.9087 83.7658 42.2934 83.3451 42.3971L80.5709 43.0811L82.191 44.9831Z" fill="#124E78" stroke="#124E78"/>
<path d="M109.438 57.375L107.967 57.6692L109.438 57.375ZM110.216 70.7886C110.375 71.6016 111.163 72.1314 111.976 71.972C112.789 71.8126 113.319 71.0243 113.159 70.2114L110.216 70.7886ZM105.732 47.6138C106.848 52.0775 107.592 55.7985 107.967 57.6692L110.908 57.0808C110.533 55.2015 109.777 51.4225 108.643 46.8862L105.732 47.6138ZM107.967 57.6692C108.109 58.3819 108.349 60.005 108.725 62.3471C109.095 64.6525 109.586 67.5775 110.216 70.7886L113.159 70.2114C112.539 67.0475 112.055 64.16 111.687 61.8716C111.326 59.62 111.066 57.8681 110.908 57.0808L107.967 57.6692Z" fill="#124E78"/>
<g clip-path="url(#clip0)">
<path d="M41.5626 58.875V71.25H39.3125V69V60.375L38.5625 58.875L38.1875 54.75L39.3125 49.5L48.6875 45.375L49.0625 48C46.3125 49 40.7376 51.15 40.4376 51.75C40.1376 52.35 40.3126 56.25 40.4376 58.125L41.5626 58.875Z" fill="white"/>
<path d="M1.3125 44.5407V70.7907H71.4375V59.5405L72.5625 58.4155V55.0405L71.8125 49.4155L59.8125 43.4157V40.4157L60.9375 38.5405C62.0625 38.0406 64.8375 36.6656 66.9375 35.1655C69.0375 33.6655 69.8125 26.7905 69.9375 23.5405L68.4375 19.0405L61.3125 8.16553L60.9375 5.91553L59.0625 2.16565C57.3125 2.04064 53.4375 1.86565 51.9375 2.16565C50.4375 2.46565 50.0625 5.29064 50.0625 6.66565L51.9375 7.41568C49.6875 8.79065 44.8125 12.5157 43.3125 16.4157C41.8125 20.3157 42.9375 22.2907 43.6875 22.7907C43.5625 23.4157 43.3125 24.9657 43.3125 26.1657C43.3125 27.3657 44.5625 27.9157 45.1875 28.0407C45.1875 28.6657 45.5625 30.6657 47.0625 33.6657C48.5625 36.6657 50.4375 39.4156 51.1875 40.4157C51.3125 41.2906 51.4875 43.4907 51.1875 45.2907C50.8875 47.0907 48.5625 47.5407 47.4375 47.5407L46.3125 46.0407L39.5625 48.2907V43.4157L37.3125 40.4157L29.0625 37.0407L27.5625 33.6657C28.6875 32.9157 31.0875 30.8907 31.6875 28.7907C32.2875 26.6907 32.1875 23.9157 32.0625 22.7907C32.9375 22.5406 34.7625 21.5907 35.0625 19.7907C35.3625 17.9907 34.4375 16.7907 33.9375 16.4157C33.8125 14.4157 33.5625 9.96568 33.5625 8.16568C33.5625 6.36565 30.8125 4.66564 29.4375 4.04065L16.3125 3.66565C14.9375 3.66565 11.8125 4.04065 10.3125 5.54065C8.8125 7.04065 8.4375 8.91568 8.4375 9.66568V15.6657C8.8125 15.9157 9.4125 16.4907 8.8125 16.7907C8.0625 17.1657 7.6875 19.0407 7.6875 20.1657C7.6875 21.0657 8.68748 21.5407 9.1875 21.6657C9.1875 22.1656 9.4875 23.9907 10.6875 27.2907C11.8875 30.5907 13.9375 32.9157 14.8125 33.6657L14.4375 37.7907L12.9375 37.4157L9.9375 41.5407L8.8125 40.4157L3.1875 42.2907C2.8125 42.4156 1.9875 42.7407 1.6875 43.0407C1.3875 43.3407 1.3125 44.1657 1.3125 44.5407Z" fill="#DDF9FF"/>
<path d="M25.2407 25.9967C24.7638 25.6098 24.0636 25.6829 23.6769 26.1598C23.204 26.743 22.5762 27.064 21.909 27.064C21.242 27.064 20.6142 26.743 20.1413 26.1598C19.7547 25.6829 19.0543 25.6099 18.5775 25.9967C18.1005 26.3835 18.0276 27.0836 18.4143 27.5605C19.3044 28.658 20.5782 29.2876 21.9089 29.2876C23.2397 29.2876 24.5134 28.658 25.4037 27.5605C25.7905 27.0836 25.7176 26.3835 25.2407 25.9967Z" fill="white"/>
<path d="M60.7632 32.6207C60.2863 32.2338 59.5861 32.3069 59.1994 32.7839C58.7265 33.367 58.0987 33.6881 57.4315 33.6881C56.7645 33.6881 56.1367 33.367 55.6637 32.7839C55.2772 32.3069 54.5768 32.234 54.1 32.6207C53.623 33.0075 53.5501 33.7077 53.9368 34.1846C54.8271 35.2822 56.1009 35.9116 57.4317 35.9116C58.7625 35.9116 60.0359 35.2822 60.9262 34.1846C61.313 33.7077 61.2401 33.0075 60.7632 32.6207Z" fill="white"/>
<path d="M52.1694 25.7937C51.5554 25.7937 51.0576 26.2915 51.0576 26.9055V28.2212C51.0576 28.8352 51.5554 29.333 52.1694 29.333C52.7834 29.333 53.2812 28.8352 53.2812 28.2212V26.9055C53.2812 26.2913 52.7834 25.7937 52.1694 25.7937Z" fill="white"/>
<path d="M62.6958 25.7937C62.0818 25.7937 61.584 26.2915 61.584 26.9055V28.2212C61.584 28.8352 62.0818 29.333 62.6958 29.333C63.3098 29.333 63.8077 28.8352 63.8077 28.2212V26.9055C63.8077 26.2915 63.3098 25.7937 62.6958 25.7937Z" fill="white"/>
<path d="M16.647 19.1697C16.0329 19.1697 15.5352 19.6675 15.5352 20.2815V21.5971C15.5352 22.2112 16.0329 22.709 16.647 22.709C17.261 22.709 17.7588 22.2112 17.7588 21.5971V20.2815C17.7588 19.6675 17.261 19.1697 16.647 19.1697Z" fill="white"/>
<path d="M27.1719 19.1697C26.5578 19.1697 26.0601 19.6675 26.0601 20.2815V21.5971C26.0601 22.2112 26.5578 22.709 27.1719 22.709C27.7859 22.709 28.2837 22.2112 28.2837 21.5971V20.2815C28.2837 19.6675 27.7859 19.1697 27.1719 19.1697Z" fill="white"/>
<path d="M17.9765 52.6729H17.9633C17.3492 52.6729 16.8579 53.1706 16.8579 53.7847C16.8579 54.3987 17.3623 54.8965 17.9763 54.8965C18.5903 54.8965 19.0881 54.3987 19.0881 53.7847C19.0881 53.1706 18.5905 52.6729 17.9765 52.6729Z" fill="white"/>
<path d="M17.9765 57.9353H17.9633C17.3492 57.9353 16.8579 58.4331 16.8579 59.0471C16.8579 59.6611 17.3623 60.1589 17.9763 60.1589C18.5903 60.1589 19.0881 59.6611 19.0881 59.0471C19.0881 58.4331 18.5905 57.9353 17.9765 57.9353Z" fill="white"/>
<path d="M24.4907 25.2467C24.0138 24.8598 23.3136 24.9329 22.9269 25.4098C22.454 25.993 21.8262 26.314 21.159 26.314C20.492 26.314 19.8642 25.993 19.3913 25.4098C19.0047 24.9329 18.3043 24.8599 17.8275 25.2467C17.3505 25.6335 17.2776 26.3336 17.6643 26.8105C18.5544 27.908 19.8282 28.5376 21.1589 28.5376C22.4897 28.5376 23.7634 27.908 24.6537 26.8105C25.0405 26.3336 24.9676 25.6335 24.4907 25.2467Z" fill="#124E78"/>
<path d="M15.897 18.4197C15.2829 18.4197 14.7852 18.9175 14.7852 19.5315V20.8471C14.7852 21.4612 15.2829 21.959 15.897 21.959C16.511 21.959 17.0088 21.4612 17.0088 20.8471V19.5315C17.0088 18.9175 16.511 18.4197 15.897 18.4197Z" fill="#124E78"/>
<path d="M26.4219 18.4197C25.8078 18.4197 25.3101 18.9175 25.3101 19.5315V20.8471C25.3101 21.4612 25.8078 21.959 26.4219 21.959C27.0359 21.959 27.5337 21.4612 27.5337 20.8471V19.5315C27.5337 18.9175 27.0359 18.4197 26.4219 18.4197Z" fill="#124E78"/>
<path d="M10.312 49.3402L7.68072 44.0775C7.40618 43.5283 6.73834 43.3056 6.1891 43.5803C5.63986 43.8548 5.41719 44.5227 5.69188 45.0719L8.2058 50.0999V70.888C8.2058 71.502 8.70358 71.9998 9.3176 71.9998C9.93163 71.9998 10.4295 71.502 10.4295 70.888V49.8374C10.4295 49.6647 10.3893 49.4945 10.312 49.3402Z" fill="#124E78" stroke="#124E78"/>
<path d="M36.129 43.5803C35.5798 43.3056 34.9119 43.5283 34.6373 44.0775L32.006 49.3402C31.9288 49.4947 31.8887 49.6647 31.8887 49.8374V70.888C31.8887 71.502 32.3864 71.9998 33.0005 71.9998C33.6145 71.9998 34.1123 71.502 34.1123 70.888V50.0999L36.6262 45.0719C36.9009 44.5229 36.6783 43.855 36.129 43.5803Z" fill="#124E78" stroke="#124E78"/>
<path d="M60.0132 31.8707C59.5363 31.4838 58.8361 31.5569 58.4494 32.0339C57.9765 32.617 57.3487 32.9381 56.6815 32.9381C56.0145 32.9381 55.3867 32.617 54.9137 32.0339C54.5272 31.5569 53.8268 31.484 53.35 31.8707C52.873 32.2575 52.8001 32.9577 53.1868 33.4346C54.0771 34.5322 55.3509 35.1616 56.6817 35.1616C58.0125 35.1616 59.2859 34.5322 60.1762 33.4346C60.563 32.9577 60.4901 32.2575 60.0132 31.8707Z" fill="#124E78"/>
<path d="M51.4194 25.0437C50.8054 25.0437 50.3076 25.5415 50.3076 26.1555V27.4712C50.3076 28.0853 50.8054 28.583 51.4194 28.583C52.0334 28.583 52.5312 28.0853 52.5312 27.4712V26.1555C52.5312 25.5413 52.0334 25.0437 51.4194 25.0437Z" fill="#124E78"/>
<path d="M61.9458 25.0437C61.3318 25.0437 60.834 25.5415 60.834 26.1555V27.4712C60.834 28.0853 61.3318 28.583 61.9458 28.583C62.5598 28.583 63.0577 28.0853 63.0577 27.4712V26.1555C63.0577 25.5415 62.5598 25.0437 61.9458 25.0437Z" fill="#124E78"/>
<path d="M73.0341 47.7668L64.0126 44.1581C63.4324 43.9261 63.0575 43.3722 63.0575 42.7472V40.0146C63.6747 39.6662 64.2652 39.2676 64.82 38.819C67.0792 36.9932 68.6753 34.4358 69.3146 31.6184C69.5277 30.6796 69.6358 29.7114 69.6358 28.7407C69.6358 22.2647 64.9449 21.3335 60.4086 20.4328C57.5075 19.8569 54.5077 19.2613 52.1149 17.3471C51.8531 17.1377 51.5103 17.0582 51.183 17.1299C50.8555 17.2013 50.5774 17.4172 50.4265 17.7167C50.4203 17.729 49.7974 18.9553 48.7438 20.1494C47.8515 21.1607 46.4501 22.3663 44.8419 22.3663C44.3011 22.3663 43.7871 22.4825 43.3224 22.6898V20.8468C43.3224 13.4798 49.3159 7.4863 56.6828 7.4863C64.0498 7.4863 70.0433 13.4798 70.0433 20.8468V23.4781C70.0433 24.0921 70.5411 24.5899 71.1551 24.5899C71.7692 24.5899 72.2669 24.0921 72.2669 23.4781V20.8468C72.2669 15.0181 69.05 9.9276 64.2989 7.25474C64.347 6.96388 64.373 6.66977 64.373 6.37448C64.373 2.85961 60.9232 0 56.6828 0C52.4425 0 48.9927 2.85961 48.9927 6.37448C48.9927 6.66992 49.0184 6.96404 49.0667 7.25489C44.3156 9.92775 41.0987 15.0182 41.0987 20.8468V26.1094C41.0987 27.799 42.2242 29.2309 43.7649 29.6947C43.8123 30.3436 43.9079 30.9877 44.0511 31.6184C44.6905 34.4358 46.2868 36.9932 48.5457 38.819C49.1006 39.2676 49.691 39.6662 50.3084 40.0146V42.7472C50.3084 43.3722 49.9334 43.9259 49.3532 44.1581L40.3319 47.7666C38.4001 48.5392 37.1519 50.3829 37.1519 52.4636V59.0017C37.1519 59.2966 37.2692 59.5795 37.4777 59.7881C37.6862 59.9965 37.9688 60.1135 38.2637 60.1135C38.2639 60.1135 38.264 60.1135 38.2643 60.1135H38.4676V70.842C38.4676 71.456 38.9654 71.9539 39.5794 71.9539C40.1934 71.9539 40.6912 71.456 40.6912 70.842V60.1129H43.7302V70.842C43.7302 71.456 44.228 71.9539 44.8421 71.9539C45.4561 71.9539 45.9539 71.456 45.9539 70.842V56.3698C45.9539 55.7557 45.4561 55.2579 44.8421 55.2579C44.228 55.2579 43.7302 55.7557 43.7302 56.3698V57.8893H39.5794C39.5792 57.8893 39.5791 57.8893 39.5788 57.8893H39.3755V52.4636C39.3755 51.2975 40.0751 50.2642 41.1578 49.8312L48.1735 47.0249C49.1048 48.6031 51.7481 52.5141 56.1856 54.7328C56.3422 54.8111 56.5125 54.8503 56.6828 54.8503C56.8532 54.8503 57.0235 54.8111 57.18 54.7328C61.6175 52.5141 64.2611 48.6031 65.1922 47.0249L72.2081 49.8314C73.2907 50.2643 73.9903 51.2977 73.9903 52.4637V57.8894H73.7864H69.6356V56.3699C69.6356 55.7559 69.1378 55.258 68.5238 55.258C67.9097 55.258 67.412 55.7559 67.412 56.3699V70.8421C67.412 71.4562 67.9097 71.954 68.5238 71.954C69.1378 71.954 69.6356 71.4562 69.6356 70.8421V60.113H72.6746V70.8421C72.6746 71.4562 73.1724 71.954 73.7864 71.954C74.4005 71.954 74.8982 71.4562 74.8982 70.8421V60.113H75.1021C75.716 60.113 76.214 59.6152 76.214 59.0012V52.4637C76.214 50.3832 74.9659 48.5396 73.0341 47.7668ZM56.683 2.22395C59.6429 2.22395 62.0592 4.01977 62.1453 6.25187C60.4445 5.61324 58.604 5.26295 56.683 5.26295C54.7619 5.26295 52.9213 5.61324 51.2207 6.25187C51.3068 4.01977 53.723 2.22395 56.683 2.22395ZM49.9437 37.09C48.0715 35.5767 46.749 33.4589 46.2197 31.1266C46.0433 30.349 45.9539 29.5462 45.9539 28.741C45.9539 28.127 45.4561 27.6292 44.8421 27.6292C44.0042 27.6292 43.3226 26.9476 43.3226 26.1097C43.3226 25.2719 44.0042 24.5902 44.8421 24.5902C48.2135 24.5902 50.659 21.5373 51.7632 19.8292C54.3561 21.4986 57.3218 22.0874 59.9756 22.6144C64.8622 23.5845 67.4121 24.2975 67.4121 28.7411C67.4121 29.5465 67.3226 30.3491 67.1463 31.1267C66.617 33.459 65.2944 35.5769 63.4223 37.09C61.4959 38.6472 59.1655 39.4702 56.683 39.4702C54.2005 39.4702 51.8701 38.6472 49.9437 37.09ZM56.683 52.4825C53.3285 50.6296 51.1709 47.6314 50.2682 46.1833C51.646 45.5911 52.5322 44.2543 52.5322 42.7474V41.0062C53.8619 41.456 55.2646 41.6938 56.683 41.6938C58.1014 41.6938 59.504 41.456 60.8338 41.0062V42.7474C60.8338 44.2543 61.72 45.5909 63.0977 46.1832C62.1947 47.632 60.037 50.6299 56.683 52.4825Z" fill="#124E78" stroke="#124E78"/>
<path d="M38.4009 38.6738L31.1815 36.5081L29.9782 34.7033C29.9782 34.7033 29.5249 34.265 29.2127 34.2197C29.0906 34.202 28.968 34.2055 28.8493 34.2276V32.576C31.7986 30.3921 33.7939 26.9896 34.0772 23.1173C35.6177 22.6536 36.7432 21.2217 36.7432 19.532C36.7432 18.4383 36.2516 17.4017 35.4275 16.6969V9.00677C35.4275 6.89845 34.3597 4.92637 32.6098 3.74457C32.0249 1.54641 30.0533 0.000976562 27.7375 0.000976562H17.2123C11.5209 0.000976562 6.89081 4.63107 6.89081 10.3224V16.6969C6.06672 17.4017 5.57515 18.4382 5.57515 19.532C5.57515 21.2217 6.70061 22.6536 8.24113 23.1173C8.52448 26.9896 10.5196 30.3921 13.4692 32.576V34.2275C13.3504 34.2052 13.2278 34.2017 13.1056 34.2196C12.7934 34.265 12.5152 34.4406 12.3401 34.7031L11.1368 36.508L3.91749 38.6737C1.76128 39.3208 0.3125 41.2679 0.3125 43.5194V70.8428C0.3125 71.4569 0.810302 71.9546 1.42433 71.9546C2.03835 71.9546 2.53615 71.4569 2.53615 70.8428V43.5194C2.53615 42.2576 3.34823 41.1662 4.55671 40.8037L9.52318 39.3137C9.53278 39.5444 9.61423 39.7721 9.76573 39.9614L14.2317 45.5439C14.7127 46.1452 15.4142 46.459 16.1249 46.459C16.6321 46.459 17.1441 46.2991 17.5836 45.9694L20.0473 44.1217L19.8125 70C19.8125 70.614 20.1985 66.5 20.8125 66.5C21.4265 66.5 22.2709 70.114 22.2709 69.5V44.1217L24.7346 45.9694C25.1741 46.2991 25.686 46.459 26.1933 46.459C26.904 46.459 27.6056 46.145 28.0865 45.5439L32.5525 39.9614C32.7043 39.7721 32.7855 39.5444 32.7953 39.3137L37.7618 40.8037C38.9703 41.1662 39.7824 42.2576 39.7824 43.5194C39.7824 44.1334 40.2802 44.6312 40.8942 44.6312C41.5082 44.6312 42.006 44.1334 42.006 43.5194C42.006 41.2679 40.5572 39.3208 38.4009 38.6738ZM10.4302 22.1634C10.4302 21.5494 9.9323 21.0515 9.31828 21.0515C8.48045 21.0515 7.7988 20.3699 7.7988 19.532C7.7988 18.9927 8.084 18.5048 8.56183 18.2266C8.58643 18.2123 8.60878 18.1953 8.6321 18.1793C8.8436 18.0719 9.07828 18.0125 9.31828 18.0125H10.871C12.0242 18.0125 13.0253 17.1919 13.2514 16.0613L14.0603 12.0168C14.0716 11.9603 14.1011 11.9174 14.1478 11.8891C14.1845 11.8668 14.2455 11.8457 14.327 11.8695C16.3019 12.4456 18.6645 12.7499 21.1593 12.7499C24.3607 12.7499 27.3162 12.2522 29.4815 11.3484C30.048 11.1118 30.3157 10.4607 30.0792 9.89402C29.8426 9.32739 29.1917 9.06002 28.6248 9.29627C26.7523 10.0778 24.0312 10.5261 21.1591 10.5261C18.9048 10.5261 16.6995 10.245 14.9497 9.73464C14.2901 9.54234 13.5778 9.63429 12.9953 9.98724C12.4189 10.3365 12.0124 10.9173 11.8797 11.5808L11.0707 15.6251C11.0517 15.7199 10.9677 15.7889 10.8709 15.7889H9.31828C9.25025 15.7889 9.18238 15.7919 9.11443 15.7956V10.3224C9.11443 5.85734 12.7472 2.22463 17.2123 2.22463H27.7375C29.1322 2.22463 30.3041 3.22972 30.5239 4.61446C30.5772 4.94949 30.7804 5.24198 31.0759 5.40861C32.3886 6.14893 33.2039 7.52762 33.2039 9.00677V17.2657C33.2039 17.6615 33.4144 18.0275 33.7565 18.2266C34.2343 18.5048 34.5196 18.9927 34.5196 19.532C34.5196 20.3699 33.838 21.0515 33.0001 21.0515C32.386 21.0515 31.8883 21.5494 31.8883 22.1634C31.8883 28.0795 27.0752 32.8925 21.1591 32.8925C15.243 32.8925 10.4302 28.0793 10.4302 22.1634ZM16.2496 44.1906C16.1609 44.2571 16.0375 44.2413 15.9682 44.1548L12.01 39.2071L13.504 36.9661L19.3675 41.8522L16.2496 44.1906ZM21.1593 40.451L15.6928 35.8956V33.9032C17.3548 34.6802 19.2067 35.1161 21.1593 35.1161C23.1118 35.1161 24.9638 34.6803 26.6257 33.9032V35.8956L21.1593 40.451ZM26.3503 44.1548C26.281 44.2415 26.1576 44.257 26.0689 44.1906L22.9511 41.8523L28.8145 36.9662L30.3085 39.2072L26.3503 44.1548Z" fill="#124E78" stroke="#124E78"/>
<rect x="14.5625" y="51" width="4.5" height="12.75" fill="#DDF9FF"/>
<path d="M13.3125 38.0001C13.3125 38.0001 8.8125 40.0001 7.3125 40.5001L12.3125 48.0001H17.3125L18.3125 71.0001H23.3125L24.3125 56.0001L27.3125 50.5001C29.8125 47.1668 36.8125 41.0001 36.8125 41.0001C36.8125 41.0001 30.1458 38.1668 28.8125 37.5001L21.3125 44.0001L16.3125 40.0001L14.8125 40.5C14.6458 39.3333 13.3125 38.0001 13.3125 38.0001Z" fill="#DDF9FF"/>
</g>
<path d="M101.562 55.5V70.875" stroke="#124E78" stroke-width="3" stroke-linecap="round"/>
<defs>
<clipPath id="clip0">
<rect width="76.5" height="72" fill="white" transform="translate(0.3125)"/>
</clipPath>
</defs>
</svg>
