<svg width="74" height="72" viewBox="0 0 74 72" fill="none" xmlns="http://www.w3.org/2000/svg">
<path d="M70.6006 59.18C70.6006 58.0353 69.9943 56.9997 69.0243 56.4909L64.6763 54.2197L63.1692 55.7278C62.1126 56.7816 60.7614 57.3085 59.4102 57.3085C58.0591 57.3085 56.7079 56.7816 55.6512 55.7278L54.1442 54.2197L52.1348 55.2736C53.1741 56.5454 53.7804 58.1988 53.7804 59.9431V69.264C53.7804 69.4094 53.7631 69.5547 53.7111 69.7001H65.1267C65.092 69.5729 65.0574 69.4275 65.0574 69.264V62.3233C65.0574 61.5784 65.6464 60.9606 66.3566 60.9606C67.0668 60.9606 67.6558 61.5784 67.6558 62.3233V69.264C67.6558 69.4094 67.6385 69.5547 67.5865 69.7001H70.6699C70.6353 69.5729 70.6006 69.4275 70.6006 69.264V59.18Z" fill="#DDF9FF"/>
<path d="M59.3942 24.1861C60.9012 24.1861 62.3217 24.5131 63.6382 25.0764C63.6382 24.9855 63.6555 24.9129 63.6555 24.822C63.6555 22.7689 61.75 21.0791 59.3942 21.0791C57.0383 21.0791 55.1328 22.7507 55.1328 24.822C55.1328 24.9129 55.1328 24.9855 55.1501 25.0764C56.4667 24.495 57.9044 24.1861 59.3942 24.1861Z" fill="#DDF9FF"/>
<path d="M33.4084 47.6055V44.335C31.6588 45.0617 29.7533 45.4796 27.7613 45.4796C25.7692 45.4796 23.8637 45.0799 22.1141 44.335V47.6055C22.1141 49.2952 21.1614 50.8396 19.6889 51.5119L17.8008 52.384C19.7063 56.2905 23.5345 58.7615 27.7613 58.7615C32.0053 58.7615 35.8162 56.2905 37.7217 52.384L35.8336 51.5119C34.3611 50.8215 33.4084 49.2952 33.4084 47.6055Z" fill="#DDF9FF"/>
<path d="M50.0557 61.0149C50.0557 59.2525 49.0684 57.6536 47.5266 56.9268L40.0953 53.4928C37.774 58.3804 33.0277 61.4873 27.7443 61.4873C22.4782 61.4873 17.7318 58.3804 15.3933 53.4746L7.96192 56.9086C6.43754 57.6536 5.45015 59.2525 5.45015 61.0149V70.3359C5.45015 70.4812 5.43283 70.6266 5.38086 70.7719H12.639C12.6044 70.6447 12.5697 70.4994 12.5697 70.3359V64.5035C12.5697 63.7585 13.1587 63.1408 13.8689 63.1408C14.5791 63.1408 15.1681 63.7585 15.1681 64.5035V70.3359C15.1681 70.4812 15.1508 70.6266 15.0988 70.7719H40.4071C40.3724 70.6447 40.3378 70.4994 40.3378 70.3359V64.5035C40.3378 63.7585 40.9267 63.1408 41.637 63.1408C42.3472 63.1408 42.9362 63.7585 42.9362 64.5035V70.3359C42.9362 70.4812 42.9188 70.6266 42.8669 70.7719H50.125C50.0904 70.6447 50.0557 70.4994 50.0557 70.3359V61.0149Z" fill="#DDF9FF"/>
<path d="M50.783 44.626C50.8003 44.6987 50.8003 44.7532 50.8176 44.8258C50.9908 45.9342 50.5404 47.0425 49.6397 47.6421C48.6003 48.3507 46.6255 49.5317 43.75 50.6037L49.6916 53.3473C49.7436 53.3655 49.7956 53.4018 49.8302 53.42L53.901 51.2942C53.9357 51.276 53.953 51.2397 53.953 51.2033V48.4234C52.6018 47.4604 51.5105 46.1522 50.783 44.626Z" fill="#DDF9FF"/>
<path d="M57.5555 35.9595C57.2956 36.6136 56.8799 37.3949 56.1524 38.158C55.65 38.6849 54.8185 38.6849 54.3162 38.158C53.8138 37.6311 53.8138 36.759 54.3162 36.2321C55.2689 35.2327 55.3209 34.2879 55.3209 34.2879C55.3209 33.87 55.4941 33.4885 55.8059 33.2341C56.1177 32.9797 56.5161 32.8707 56.8972 32.9616C57.209 33.0342 63.705 34.5786 67.3947 38.5032C67.6719 37.6129 67.8278 36.6863 67.8278 35.7415C67.8278 30.8721 64.0514 26.9111 59.409 26.9111C54.7666 26.9111 50.9902 30.8721 50.9902 35.7415C50.9902 37.3586 51.4233 38.9575 52.2375 40.3565C52.3414 40.52 52.3934 40.7199 52.428 40.9198C52.8091 44.6627 55.8232 47.4971 59.409 47.4971C62.8562 47.4971 65.7491 44.8989 66.338 41.3922C64.2766 38.3579 59.7554 36.6318 57.5555 35.9595Z" fill="#DDF9FF"/>
<path d="M48.2364 45.2616C47.786 42.4453 46.6254 34.3418 45.6034 19.8062C45.2223 14.4462 43.4207 9.95837 40.3893 6.81506C37.4271 3.76259 33.4429 2.14551 28.8524 2.14551C24.262 2.14551 20.2604 3.76259 17.2983 6.83322C14.2668 9.95837 12.4653 14.4462 12.0842 19.8244C11.0622 34.3599 9.90156 42.4635 9.45117 45.2798C9.45117 45.3161 9.45117 45.3343 9.48582 45.3524C10.7157 46.1882 13.4007 47.7508 17.5928 48.9318L19.7408 47.9325C20.2778 47.6781 20.6242 47.1331 20.6242 46.5153V41.8276C16.4495 38.9931 13.6779 34.0511 13.6779 28.4549V27.3102C13.6779 25.8203 14.4574 24.4212 15.7219 23.6581C16.9518 22.9132 18.5802 21.5505 19.3077 19.2793C19.5329 18.5707 20.2778 18.171 20.9534 18.4253C21.6289 18.6615 22.01 19.4428 21.7675 20.1514C20.7801 23.2402 18.6495 25.0572 17.0211 26.0383C16.5534 26.3109 16.2763 26.8014 16.2763 27.3284V28.473C16.2763 35.759 21.9234 41.6822 28.8698 41.6822C35.8161 41.6822 41.4633 35.759 41.4633 28.473V25.9111C41.4633 25.039 41.1168 24.2214 40.5105 23.6763C38.1373 21.5141 32.7154 17.7167 23.188 16.7174C22.4777 16.6447 21.9581 15.9725 22.0274 15.2275C22.0966 14.4826 22.7376 13.9375 23.4478 14.0102C33.6854 15.0822 39.5924 19.243 42.2081 21.6232C43.3861 22.6951 44.0616 24.2577 44.0616 25.9293V28.4912C44.0616 34.0874 41.29 39.0295 37.1153 41.8639V46.5516C37.1153 47.1694 37.4618 47.7145 37.9988 47.9688L40.1467 48.9682C44.3215 47.7872 47.0065 46.2246 48.2537 45.3888C48.2364 45.3343 48.2537 45.3161 48.2364 45.2616Z" fill="#DDF9FF"/>
<path d="M62.2685 49.75C61.3677 50.0407 60.3977 50.2042 59.4103 50.2042C58.4056 50.2042 57.4528 50.0407 56.552 49.75V51.2036C56.552 51.676 56.4481 52.1302 56.2402 52.5299L57.4528 53.7291C58.5615 54.8374 60.2937 54.8374 61.4024 53.7291L62.6149 52.5299C62.4071 52.1302 62.3031 51.676 62.3031 51.2036L62.2685 49.75Z" fill="#DDF9FF"/>
<path d="M11.6865 63.3291C10.9332 63.3291 10.3086 63.9538 10.3086 64.707V70.6044C10.3086 71.3577 10.9332 71.9823 11.6865 71.9823C12.4397 71.9823 13.0644 71.3577 13.0644 70.6044V64.707C13.0644 63.9538 12.4581 63.3291 11.6865 63.3291Z" fill="#124E78"/>
<path d="M41.1377 63.3291C40.3844 63.3291 39.7598 63.9538 39.7598 64.707V70.6044C39.7598 71.3577 40.3844 71.9823 41.1377 71.9823C41.8909 71.9823 42.5156 71.3577 42.5156 70.6044V64.707C42.5156 63.9538 41.9093 63.3291 41.1377 63.3291Z" fill="#124E78"/>
<path d="M70.2363 55.2447L64.6696 52.4522C64.6328 52.4338 64.6144 52.397 64.6144 52.3603V49.5494C66.911 47.9694 68.5277 45.4708 68.9319 42.5496C69.9607 40.7675 70.5119 38.765 70.5119 36.7073C70.5119 32.8859 68.6747 29.5055 65.8454 27.3743C66.0107 26.8232 66.1026 26.2536 66.1026 25.6657C66.1026 22.0648 62.8507 19.1253 58.8273 19.1253C54.8038 19.1253 51.5519 22.0648 51.5519 25.6657C51.5519 26.2536 51.6438 26.8232 51.8091 27.3743C50.1189 28.642 48.7961 30.369 47.9878 32.3532C47.6387 28.9911 47.2896 25.0227 46.9405 20.4113C46.4812 14.3302 44.295 9.16764 40.5838 5.52998C36.9278 1.91069 32.0225 0 26.419 0C20.8155 0 15.9102 1.91069 12.2358 5.52998C8.543 9.16764 6.33835 14.3302 5.89742 20.4297C5.76882 22.0464 5.16254 31.1222 5.16254 31.1222C5.16254 31.1222 3.21511 47.8224 3.38045 47.6203C3.60092 48.0612 3.94999 48.4654 4.37254 48.741C5.47487 49.4575 7.56928 50.6517 10.619 51.7356L6.76091 53.4442L3.04976 55.2447C1.15744 56.6042 0 58.7905 0 61.1789V70.6037C0 71.357 0.624649 71.9816 1.3779 71.9816C2.13116 71.9816 2.75581 71.357 2.75581 70.6037V61.1789C2.75581 59.3968 3.80301 57.78 5.43812 57.0452L13.3197 53.5729C15.7816 58.5149 20.8339 61.6749 26.419 61.6749C32.0225 61.6749 37.038 58.5333 39.5182 53.5912L47.3999 57.0635C49.035 57.78 50.0822 59.3968 50.0822 61.1972V70.6221C50.0822 71.3753 50.7068 72 51.4601 72C52.2133 72 52.838 71.3753 52.838 70.6221V61.1789C52.838 59.4152 52.195 57.7617 51.0926 56.4573L53.2238 55.3917L54.8222 56.9166C55.9428 57.9821 57.3759 58.5149 58.8089 58.5149C60.2419 58.5149 61.6749 57.9821 62.7956 56.9166L64.394 55.3917L69.0054 57.6882C70.0342 58.2026 70.6772 59.2498 70.6772 60.4072V70.5854C70.6772 71.3386 71.3019 71.9633 72.0551 71.9633C72.8084 71.9633 73.433 71.3386 73.433 70.5854V60.4072C73.4514 58.2026 72.2205 56.2184 70.2363 55.2447ZM58.8089 21.8995C61.2891 21.8995 63.3284 23.5897 63.3284 25.6841C63.3284 25.776 63.3284 25.8495 63.31 25.9413C61.9321 25.3534 60.4073 25.0411 58.8089 25.0411C57.2105 25.0411 55.704 25.3718 54.3077 25.9413C54.3077 25.8495 54.2894 25.776 54.2894 25.6841C54.3077 23.5897 56.3287 21.8995 58.8089 21.8995ZM26.419 58.9007C21.9362 58.9007 17.876 56.4021 15.8551 52.4522L17.8576 51.5703C19.4192 50.8722 20.4297 49.3289 20.4297 47.6203V44.3133C22.2853 45.0482 24.3062 45.4708 26.419 45.4708C28.5318 45.4708 30.5527 45.0666 32.4083 44.3133V47.6203C32.4083 49.3289 33.4187 50.8905 34.9804 51.5703L36.9829 52.4522C34.962 56.4021 30.9201 58.9007 26.419 58.9007ZM38.3608 50.0454L36.0827 49.035C35.5131 48.7777 35.1457 48.2266 35.1457 47.6019V42.862C39.5734 39.9959 42.5129 34.9987 42.5129 29.3401V26.7497C42.5129 25.0778 41.7964 23.4795 40.5471 22.3955C37.7729 19.9888 31.508 15.7816 20.6502 14.6976C19.8969 14.6241 19.2171 15.1753 19.1437 15.9286C19.0702 16.6818 19.6213 17.3616 20.3746 17.4351C30.4792 18.4455 36.2113 22.2669 38.7466 24.4715C39.3896 25.0227 39.7571 25.8495 39.7571 26.7313V29.3218C39.7571 36.689 33.7678 42.6782 26.4006 42.6782C19.0334 42.6782 13.0441 36.689 13.0441 29.3218V28.1643C13.0441 27.6315 13.3381 27.1539 13.8341 26.8599C15.5611 25.8678 17.8209 24.0306 18.8681 20.9074C19.1069 20.1909 18.7211 19.4009 18.0046 19.162C17.2881 18.9232 16.4981 19.309 16.2593 20.0255C15.4876 22.322 13.779 23.6999 12.4562 24.4532C11.1151 25.2248 10.2883 26.6394 10.2883 28.146V29.3034C10.2883 34.962 13.2279 39.9592 17.6555 42.8252V47.5652C17.6555 48.1898 17.2881 48.741 16.7186 48.9982L14.4404 50.0087C10.0311 48.8696 7.18347 47.2896 5.87905 46.4445C5.86068 46.4261 5.84231 46.4078 5.84231 46.371C6.31998 43.5233 7.55091 35.3294 8.63486 20.6318C9.03904 15.1937 10.9497 10.6558 14.1648 7.49579C17.3065 4.39092 21.5504 2.75581 26.419 2.75581C31.2876 2.75581 35.5131 4.39092 38.6548 7.49579C41.8699 10.6558 43.7806 15.212 44.1847 20.6318C45.2687 35.3294 46.4996 43.5233 46.9773 46.371C46.9773 46.4078 46.9773 46.4261 46.9405 46.4445C45.6361 47.2896 42.8068 48.8696 38.3608 50.0454ZM53.0217 52.3603C53.0217 52.397 53.0033 52.4338 52.9666 52.4522L48.6491 54.6017C48.594 54.5833 48.5573 54.5466 48.5022 54.5282L42.2006 51.754C45.2687 50.6517 47.3447 49.4759 48.4471 48.7594C49.4024 48.1531 49.8984 47.0324 49.6964 45.9117C49.678 45.8566 49.678 45.7831 49.6596 45.7096C50.4312 47.2712 51.5887 48.594 53.0033 49.5677V52.3603H53.0217ZM60.9033 54.914C59.7275 56.0347 57.8903 56.0347 56.7145 54.914L55.4284 53.7015C55.6489 53.2973 55.7591 52.838 55.7591 52.3603V50.8905C56.7145 51.1845 57.7433 51.3498 58.7905 51.3498C59.8561 51.3498 60.8666 51.1845 61.8219 50.8905V52.3603C61.8219 52.838 61.9321 53.2973 62.1526 53.7015L60.9033 54.914ZM58.8089 48.594C54.9875 48.594 51.8091 45.7464 51.405 41.9434C51.3866 41.7413 51.3131 41.5392 51.2029 41.3738C50.3394 39.9592 49.8801 38.3608 49.8801 36.7073C49.8801 31.7836 53.8852 27.7785 58.8089 27.7785C63.7326 27.7785 67.7377 31.7836 67.7377 36.7073C67.7377 37.6627 67.5907 38.5996 67.2784 39.4999C63.3652 35.5315 56.4756 33.9699 56.1449 33.8964C55.7408 33.8045 55.3182 33.9148 54.9875 34.172C54.6568 34.4292 54.4731 34.8334 54.4731 35.2376C54.4731 35.2376 54.418 36.2113 53.4075 37.2034C52.8747 37.7362 52.8747 38.618 53.4075 39.1508C53.9403 39.6836 54.8222 39.6836 55.3549 39.1508C56.1266 38.3792 56.5859 37.5892 56.8431 36.9278C59.158 37.6076 63.9714 39.3529 66.1393 42.4027C65.5514 45.9852 62.4649 48.594 58.8089 48.594Z" fill="#124E78"/>
<path d="M66.1787 62.207C65.4254 62.207 64.8008 62.8317 64.8008 63.5849V70.603C64.8008 71.3563 65.4254 71.981 66.1787 71.981C66.9319 71.981 67.5566 71.3563 67.5566 70.603V63.5849C67.5566 62.8133 66.9503 62.207 66.1787 62.207Z" fill="#124E78"/>
</svg>
