<svg width="22" height="2" viewBox="0 0 22 2" fill="none" xmlns="http://www.w3.org/2000/svg">
<mask id="path-1-inside-1" fill="white">
<path d="M21 0.00012207H1.00003C0.40003 0.00012207 3.05176e-05 0.400122 3.05176e-05 1.00012C3.05176e-05 1.60012 0.40003 2.00012 1.00003 2.00012H21C21.6 2.00012 22 1.60012 22 1.00012C22 0.400122 21.6 0.00012207 21 0.00012207Z"/>
</mask>
<path d="M21 0.00012207H1.00003C0.40003 0.00012207 3.05176e-05 0.400122 3.05176e-05 1.00012C3.05176e-05 1.60012 0.40003 2.00012 1.00003 2.00012H21C21.6 2.00012 22 1.60012 22 1.00012C22 0.400122 21.6 0.00012207 21 0.00012207Z" fill="#00AFD0"/>
<path d="M21 -1.99988H1.00003V2.00012H21V-1.99988ZM1.00003 -1.99988C0.245535 -1.99988 -0.538625 -1.73965 -1.13918 -1.13909C-1.73974 -0.538533 -1.99997 0.245627 -1.99997 1.00012H2.00003C2.00003 1.15462 1.9398 1.43878 1.68924 1.68934C1.43869 1.93989 1.15453 2.00012 1.00003 2.00012V-1.99988ZM-1.99997 1.00012C-1.99997 1.75462 -1.73974 2.53878 -1.13918 3.13934C-0.538625 3.73989 0.245535 4.00012 1.00003 4.00012V0.00012207C1.15453 0.00012207 1.43869 0.06035 1.68924 0.310909C1.9398 0.561467 2.00003 0.845627 2.00003 1.00012H-1.99997ZM1.00003 4.00012H21V0.00012207H1.00003V4.00012ZM21 4.00012C21.7545 4.00012 22.5387 3.73989 23.1392 3.13934C23.7398 2.53878 24 1.75462 24 1.00012H20C20 0.845627 20.0603 0.561467 20.3108 0.310909C20.5614 0.06035 20.8455 0.00012207 21 0.00012207V4.00012ZM24 1.00012C24 0.245627 23.7398 -0.538533 23.1392 -1.13909C22.5387 -1.73965 21.7545 -1.99988 21 -1.99988V2.00012C20.8455 2.00012 20.5614 1.93989 20.3108 1.68934C20.0603 1.43878 20 1.15462 20 1.00012H24Z" fill="#00AFD0" mask="url(#path-1-inside-1)"/>
</svg>
