<svg width="112" height="72" viewBox="0 0 112 72" fill="none" xmlns="http://www.w3.org/2000/svg">
<path d="M28.1671 10.8167C30.4746 11.9034 35.9831 14.0873 39.5574 14.1289C44.0252 14.181 56.5196 11.2332 58.6626 11.6878C60.377 12.0515 64.3469 15.5064 65.8642 16.7987L49.1161 27.1301C47.5575 28.1431 44.3273 30.2795 46.9404 33.1629C49.5535 36.0463 52.7524 34.6199 54.0253 33.5462C57.1944 31.9791 64.2131 29.4372 66.9353 31.8063C69.6575 34.1753 87.691 45.0608 89.3929 46.8022C90.6693 48.1081 90.6693 55.652 83.8617 53.6097C85.2233 59.0289 82.1598 60.3949 80.0325 59.9918C80.8834 61.2716 80.5363 62.9928 79.1815 64.6721C77.8268 66.3513 74.0758 65.185 71.523 64.2466C70.8472 63.9982 68.5914 63.0878 65.8642 61.935L65.8642 61.935C65.8815 62.9091 66.0101 64.1632 65.1409 65.9485C64.5417 67.1792 61.4285 67.1415 59.1843 66.3739C56.94 65.6064 50.3358 62.5481 50.3358 62.5481L12.5939 34.61L28.1671 10.8167Z" fill="#DDF9FF"/>
<path d="M83.8617 53.6097C81.7344 52.3333 63.8828 43.0277 63.8828 43.0277L83.8617 53.6097ZM83.8617 53.6097C85.2233 59.0289 82.1598 60.3949 80.0325 59.9918M83.8617 53.6097C90.6693 55.652 90.6693 48.1081 89.3929 46.8022C87.691 45.0608 69.6575 34.1753 66.9353 31.8063C64.2131 29.4372 57.1944 31.9791 54.0253 33.5462C52.7524 34.6199 49.5535 36.0463 46.9404 33.1629C44.3273 30.2795 47.5575 28.1431 49.116 27.1301L65.8642 16.7987C64.3469 15.5064 60.377 12.0515 58.6626 11.6878C56.5196 11.2332 44.0252 14.181 39.5574 14.1289C35.9831 14.0873 30.4746 11.9034 28.1671 10.8167L12.5939 34.61L50.3358 62.5481C50.3358 62.5481 56.94 65.6064 59.1843 66.3739C61.4285 67.1415 64.5417 67.1792 65.1409 65.9485C66.0101 64.1632 65.8815 62.9091 65.8642 61.935L52.9076 55.7035C54.8493 57.4591 69.5977 63.5388 71.523 64.2466C74.0758 65.185 77.8268 66.3513 79.1815 64.6721C80.5363 62.9928 80.8834 61.2716 80.0325 59.9918M80.0325 59.9918L56.1808 47.6641" stroke="#124E78" stroke-width="3" stroke-linecap="round" stroke-linejoin="round"/>
<rect x="34.9651" y="44.325" width="6.57204" height="11.3915" rx="3.28602" transform="rotate(34.2741 34.9651 44.325)" fill="white" stroke="#124E78" stroke-width="3" stroke-linecap="round" stroke-linejoin="round"/>
<rect x="45.5605" y="41.6964" width="7.60137" height="22.4257" rx="3.80068" transform="rotate(34.2741 45.5605 41.6964)" fill="white" stroke="#124E78" stroke-width="3" stroke-linecap="round" stroke-linejoin="round"/>
<rect x="52.2324" y="48.2684" width="6.5753" height="17.1571" rx="3.28765" transform="rotate(34.2741 52.2324 48.2684)" fill="white" stroke="#124E78" stroke-width="3" stroke-linecap="round" stroke-linejoin="round"/>
<rect x="57.5989" y="53.5258" width="6.5753" height="13.4603" rx="3.28765" transform="rotate(34.2741 57.5989 53.5258)" fill="white" stroke="#124E78" stroke-width="3" stroke-linecap="round" stroke-linejoin="round"/>
<rect width="3.34189" height="8.20038" rx="1.67094" transform="matrix(0.858068 0.513535 -0.571136 0.820856 35.5154 47.078)" fill="#DDF9FF"/>
<rect width="4.50457" height="18.7834" rx="2.25229" transform="matrix(0.86298 0.505238 -0.563194 0.826325 45.6653 44.8022)" fill="#DDF9FF"/>
<rect width="3.70814" height="14.0122" rx="1.85407" transform="matrix(0.857522 0.514448 -0.572008 0.820248 52.7219 50.6376)" fill="#DDF9FF"/>
<rect width="3.49775" height="9.83865" rx="1.74887" transform="matrix(0.857934 0.513761 -0.571351 0.820706 57.7268 56.4385)" fill="#DDF9FF"/>
<rect width="17.0873" height="38.1179" transform="matrix(-0.840422 -0.541932 -0.541932 0.840422 37.1885 9.26013)" fill="white" stroke="#124E78" stroke-width="3" stroke-linecap="round" stroke-linejoin="round"/>
<path d="M69.5118 17.1652C77.0885 16.2222 80.6256 12.7652 81.447 11.1547L96.9768 37.6488C94.569 39.0397 86.2458 41.7369 85.1381 41.6964C83.7535 41.6458 62.6374 32.6499 58.2118 32.3494C53.7862 32.0489 48.7487 39.0049 47.5853 40.4874C46.4219 41.97 44.8128 44.2681 41.3767 43.4492C38.6278 42.7941 38.7256 40.1173 39.1182 38.8607C42.3665 32.8098 49.3951 20.1869 51.5233 18.1018C54.1835 15.4956 60.041 18.344 69.5118 17.1652Z" fill="#DDF9FF" stroke="#124E78" stroke-width="3" stroke-linecap="round" stroke-linejoin="round"/>
<rect x="75.3521" y="11.4756" width="17.0873" height="38.1179" transform="rotate(-31.4791 75.3521 11.4756)" fill="#DDF9FF" stroke="#124E78" stroke-width="3" stroke-linecap="round" stroke-linejoin="round"/>
<path d="M93.5693 33.3813L80.4898 12.4148" stroke="#124E78" stroke-width="3" stroke-linecap="round" stroke-linejoin="round"/>
<circle r="1.81944" transform="matrix(-0.985107 0.171943 0.171943 0.985107 97.0239 38.0124)" fill="#124E78"/>
<rect x="23.2195" y="3.56226" width="13.4266" height="32.0746" transform="rotate(32.5636 23.2195 3.56226)" fill="#DDF9FF"/>
<path d="M17.7677 30.9286L31.0177 10.8708" stroke="#124E78" stroke-width="3" stroke-linecap="round" stroke-linejoin="round"/>
<circle cx="14.084" cy="34.8889" r="1.7019" fill="#124E78"/>
</svg>
