<svg width="43" height="37" viewBox="0 0 43 37" fill="none" xmlns="http://www.w3.org/2000/svg">
<rect x="9.40869" y="18.5089" width="24.2921" height="17.7519" fill="#DDF9FF"/>
<rect x="19.507" y="4.32263" width="21.4169" height="26.3976" fill="#DDF9FF"/>
<circle cx="13.2823" cy="29.4751" r="2.2413" fill="white"/>
<path fill-rule="evenodd" clip-rule="evenodd" d="M5.43672 36.2232V33.0558H4.35683C4.04547 33.0558 3.79757 32.8057 3.79757 32.5028C3.79757 32.1999 4.04547 31.9498 4.35683 31.9498H8.18641C8.49776 31.9498 8.74566 32.1999 8.74566 32.5028C8.74566 32.8057 8.49776 33.0558 8.18641 33.0558H6.55524V35.6702H32.9304V18.1932L21.9886 25.5037C21.3784 25.9115 20.5616 26.12 19.7152 26.1069C18.8698 26.0938 18.03 25.8599 17.3791 25.4251L6.55524 18.1932V25.8204H8.18641C8.49776 25.8204 8.74566 26.0706 8.74566 26.3735C8.74566 26.6763 8.49776 26.9265 8.18641 26.9265H4.35683C4.04547 26.9265 3.79757 26.6763 3.79757 26.3735C3.79757 26.0706 4.04547 25.8204 4.35683 25.8204H5.43672L5.43676 17.1647L5.43668 17.159L5.43672 17.1435V14.5605C5.43672 14.2576 5.68462 14.0074 5.99598 14.0074H33.4896C33.801 14.0074 34.0489 14.2576 34.0489 14.5605L34.0488 17.1375L34.0489 17.1431L34.0489 17.1592V36.2232C34.0489 36.5262 33.801 36.7763 33.4896 36.7763H5.99598C5.68463 36.7763 5.43672 36.5261 5.43672 36.2232ZM6.55524 15.1134V16.8583L18.0053 24.5085C18.4865 24.83 19.1065 24.9882 19.6961 25.0042C20.2828 25.0202 20.8993 24.8966 21.3625 24.5871L32.9304 16.8582V15.1134H6.55524ZM37.8232 30.6827H40.8814V1.86304H16.9023V10.6226C16.9023 10.9255 16.6544 11.1756 16.343 11.1756C16.0317 11.1756 15.7838 10.9255 15.7838 10.6226V1.31C15.7838 1.00711 16.0317 0.756958 16.343 0.756958H41.4406C41.752 0.756958 41.9999 1.00711 41.9999 1.31V31.2357C41.9999 31.5386 41.7521 31.7888 41.4406 31.7888H37.8232C37.5118 31.7888 37.2639 31.5386 37.2639 31.2357C37.2639 30.9328 37.5118 30.6827 37.8232 30.6827ZM37.5034 25.1914C37.5034 24.4786 37.1537 23.9006 36.7029 23.6904C36.4228 23.5598 36.3051 23.2307 36.4348 22.9563C36.5653 22.6802 36.8986 22.5588 37.1801 22.6901C38.0331 23.088 38.6219 24.0551 38.6219 25.1915C38.6219 26.328 38.033 27.2952 37.18 27.6931C37.1024 27.7293 37.0215 27.7461 36.9422 27.7461C36.7295 27.7461 36.5291 27.6265 36.4348 27.4269C36.3052 27.1522 36.423 26.8232 36.7029 26.6927C37.1537 26.4824 37.5034 25.9043 37.5034 25.1914ZM13.4836 32.6614C11.6913 32.6614 10.2371 31.2125 10.2371 29.4382C10.2371 27.6638 11.6913 26.215 13.4836 26.215C15.2759 26.215 16.7302 27.6638 16.7302 29.4382C16.7302 31.2125 15.2759 32.6614 13.4836 32.6614ZM13.4836 27.3209C12.3124 27.3209 11.3556 28.2678 11.3556 29.4381C11.3556 30.6084 12.3123 31.5552 13.4836 31.5552C14.6549 31.5552 15.6116 30.6084 15.6116 29.4381C15.6116 28.2678 14.6549 27.3209 13.4836 27.3209ZM7.58036 29.9912H1.55914C1.24778 29.9912 0.999878 29.741 0.999878 29.4381C0.999878 29.1352 1.24778 28.8851 1.55914 28.8851H7.58036C7.89172 28.8851 8.13962 29.1352 8.13962 29.4381C8.13962 29.741 7.89172 29.9912 7.58036 29.9912ZM35.7847 10.1069H21.9988C21.6875 10.1069 21.4396 9.85678 21.4396 9.55389C21.4396 9.251 21.6875 9.00085 21.9988 9.00085H35.7848C36.0962 9.00085 36.3441 9.251 36.3441 9.55389C36.3441 9.85675 36.0962 10.1069 35.7847 10.1069ZM33.1193 6.11777H24.6031C24.2917 6.11777 24.0438 5.86762 24.0438 5.56473C24.0438 5.26184 24.2917 5.01169 24.6031 5.01169H33.1193C33.4307 5.01169 33.6786 5.26184 33.6786 5.56473C33.6786 5.86765 33.4307 6.11777 33.1193 6.11777Z" fill="#124E78"/>
<path d="M5.43672 33.0558H5.57687V32.9157H5.43672V33.0558ZM6.55524 33.0558V32.9157H6.41509V33.0558H6.55524ZM6.55524 35.6702H6.41509V35.8103H6.55524V35.6702ZM32.9304 35.6702V35.8103H33.0705V35.6702H32.9304ZM32.9304 18.1932H33.0705V17.9311L32.8525 18.0767L32.9304 18.1932ZM21.9886 25.5037L21.9108 25.3872L21.9108 25.3872L21.9886 25.5037ZM19.7152 26.1069L19.713 26.247V26.247L19.7152 26.1069ZM17.3791 25.4251L17.3012 25.5416L17.3012 25.5416L17.3791 25.4251ZM6.55524 18.1932L6.6331 18.0767L6.41509 17.931V18.1932H6.55524ZM6.55524 25.8204H6.41509V25.9606H6.55524V25.8204ZM5.43672 25.8204V25.9606H5.57687L5.57687 25.8204H5.43672ZM5.43676 17.1647H5.57692L5.5769 17.1628L5.43676 17.1647ZM5.43668 17.159L5.29652 17.1587L5.29655 17.161L5.43668 17.159ZM5.43672 17.1435L5.57687 17.1438V17.1435H5.43672ZM34.0489 14.5605L34.189 14.5605V14.5605H34.0489ZM34.0488 17.1375L33.9087 17.1375L33.9087 17.1394L34.0488 17.1375ZM34.0489 17.1431L34.1891 17.1435L34.1891 17.1412L34.0489 17.1431ZM34.0489 17.1592L33.9087 17.1589V17.1592H34.0489ZM6.55524 16.8583H6.41509V16.9332L6.47738 16.9749L6.55524 16.8583ZM6.55524 15.1134V14.9733H6.41509V15.1134H6.55524ZM18.0053 24.5085L18.0831 24.392L18.0053 24.5085ZM19.6961 25.0042L19.6999 24.8641L19.6961 25.0042ZM21.3625 24.5871L21.2846 24.4706L21.2846 24.4706L21.3625 24.5871ZM32.9304 16.8582L33.0082 16.9747L33.0705 16.9331V16.8582H32.9304ZM32.9304 15.1134H33.0705V14.9733H32.9304V15.1134ZM40.8814 30.6827V30.8228H41.0215V30.6827H40.8814ZM40.8814 1.86304H41.0215V1.72289H40.8814V1.86304ZM16.9023 1.86304V1.72289H16.7621V1.86304H16.9023ZM36.7029 23.6904L36.7621 23.5634L36.7621 23.5634L36.7029 23.6904ZM36.4348 22.9563L36.3081 22.8964L36.4348 22.9563ZM37.1801 22.6901L37.1208 22.8171L37.1208 22.8171L37.1801 22.6901ZM37.18 27.6931L37.1208 27.5661L37.1208 27.5661L37.18 27.6931ZM36.4348 27.4269L36.3081 27.4867L36.3081 27.4867L36.4348 27.4269ZM36.7029 26.6927L36.6437 26.5656V26.5656L36.7029 26.6927ZM5.29658 33.0558V36.2232H5.57687V33.0558H5.29658ZM4.35683 33.196H5.43672V32.9157H4.35683V33.196ZM3.65743 32.5028C3.65743 32.8837 3.96872 33.196 4.35683 33.196V32.9157C4.12222 32.9157 3.93772 32.7276 3.93772 32.5028H3.65743ZM4.35683 31.8096C3.96872 31.8096 3.65743 32.1219 3.65743 32.5028H3.93772C3.93772 32.278 4.12222 32.0899 4.35683 32.0899V31.8096ZM8.18641 31.8096H4.35683V32.0899H8.18641V31.8096ZM8.88581 32.5028C8.88581 32.1219 8.57451 31.8096 8.18641 31.8096V32.0899C8.42101 32.0899 8.60552 32.278 8.60552 32.5028H8.88581ZM8.18641 33.196C8.57451 33.196 8.88581 32.8837 8.88581 32.5028H8.60552C8.60552 32.7276 8.42101 32.9157 8.18641 32.9157V33.196ZM6.55524 33.196H8.18641V32.9157H6.55524V33.196ZM6.69538 35.6702V33.0558H6.41509V35.6702H6.69538ZM32.9304 35.5301H6.55524V35.8103H32.9304V35.5301ZM32.7902 18.1932V35.6702H33.0705V18.1932H32.7902ZM22.0665 25.6202L33.0082 18.3098L32.8525 18.0767L21.9108 25.3872L22.0665 25.6202ZM19.713 26.247C20.5817 26.2605 21.4279 26.047 22.0665 25.6202L21.9108 25.3872C21.3288 25.7761 20.5414 25.9795 19.7174 25.9668L19.713 26.247ZM17.3012 25.5416C17.9779 25.9937 18.845 26.2336 19.713 26.247L19.7174 25.9668C18.8946 25.954 18.082 25.7261 17.4569 25.3085L17.3012 25.5416ZM6.47738 18.3098L17.3012 25.5416L17.4569 25.3085L6.6331 18.0767L6.47738 18.3098ZM6.69538 25.8204V18.1932H6.41509V25.8204H6.69538ZM8.18641 25.6803H6.55524V25.9606H8.18641V25.6803ZM8.88581 26.3735C8.88581 25.9925 8.57451 25.6803 8.18641 25.6803V25.9606C8.42101 25.9606 8.60552 26.1486 8.60552 26.3735H8.88581ZM8.18641 27.0666C8.57451 27.0666 8.88581 26.7544 8.88581 26.3735H8.60552C8.60552 26.5983 8.42101 26.7863 8.18641 26.7863V27.0666ZM4.35683 27.0666H8.18641V26.7863H4.35683V27.0666ZM3.65743 26.3735C3.65743 26.7544 3.96872 27.0666 4.35683 27.0666V26.7863C4.12222 26.7863 3.93772 26.5983 3.93772 26.3735H3.65743ZM4.35683 25.6803C3.96872 25.6803 3.65743 25.9925 3.65743 26.3735H3.93772C3.93772 26.1486 4.12222 25.9606 4.35683 25.9606V25.6803ZM5.43672 25.6803H4.35683V25.9606H5.43672V25.6803ZM5.29662 17.1647L5.29658 25.8204H5.57687L5.57691 17.1647H5.29662ZM5.29655 17.161L5.29663 17.1666L5.5769 17.1628L5.57682 17.1571L5.29655 17.161ZM5.29658 17.1431L5.29654 17.1587L5.57683 17.1594L5.57687 17.1438L5.29658 17.1431ZM5.29658 14.5605V17.1435H5.57687V14.5605H5.29658ZM5.99598 13.8673C5.60787 13.8673 5.29658 14.1795 5.29658 14.5605H5.57687C5.57687 14.3356 5.76137 14.1476 5.99598 14.1476V13.8673ZM33.4896 13.8673H5.99598V14.1476H33.4896V13.8673ZM34.189 14.5605C34.189 14.1795 33.8777 13.8673 33.4896 13.8673V14.1476C33.7242 14.1476 33.9087 14.3356 33.9087 14.5605H34.189ZM34.189 17.1375L34.189 14.5605L33.9087 14.5605L33.9087 17.1375L34.189 17.1375ZM34.1891 17.1412L34.189 17.1356L33.9087 17.1394L33.9088 17.145L34.1891 17.1412ZM34.189 17.1596L34.1891 17.1435L33.9088 17.1428L33.9087 17.1589L34.189 17.1596ZM34.189 36.2232V17.1592H33.9087V36.2232H34.189ZM33.4896 36.9164C33.8778 36.9164 34.189 36.6043 34.189 36.2232H33.9087C33.9087 36.4482 33.7243 36.6361 33.4896 36.6361V36.9164ZM5.99598 36.9164H33.4896V36.6361H5.99598V36.9164ZM5.29658 36.2232C5.29658 36.6042 5.60788 36.9164 5.99598 36.9164V36.6361C5.76137 36.6361 5.57687 36.4481 5.57687 36.2232H5.29658ZM6.69538 16.8583V15.1134H6.41509V16.8583H6.69538ZM18.0831 24.392L6.6331 16.7418L6.47738 16.9749L17.9274 24.625L18.0831 24.392ZM19.6999 24.8641C19.1301 24.8487 18.5374 24.6955 18.0831 24.392L17.9274 24.625C18.4355 24.9645 19.0829 25.1278 19.6923 25.1443L19.6999 24.8641ZM21.2846 24.4706C20.8528 24.7591 20.2678 24.8796 19.6999 24.8641L19.6923 25.1443C20.2977 25.1608 20.9457 25.0342 21.4404 24.7036L21.2846 24.4706ZM32.8525 16.7417L21.2846 24.4706L21.4404 24.7036L33.0082 16.9747L32.8525 16.7417ZM32.7902 15.1134V16.8582H33.0705V15.1134H32.7902ZM6.55524 15.2536H32.9304V14.9733H6.55524V15.2536ZM40.8814 30.5425H37.8232V30.8228H40.8814V30.5425ZM40.7412 1.86304V30.6827H41.0215V1.86304H40.7412ZM16.9023 2.00319H40.8814V1.72289H16.9023V2.00319ZM17.0424 10.6226V1.86304H16.7621V10.6226H17.0424ZM16.343 11.3158C16.7311 11.3158 17.0424 11.0035 17.0424 10.6226H16.7621C16.7621 10.8474 16.5776 11.0355 16.343 11.0355V11.3158ZM15.6436 10.6226C15.6436 11.0035 15.9549 11.3158 16.343 11.3158V11.0355C16.1084 11.0355 15.9239 10.8474 15.9239 10.6226H15.6436ZM15.6436 1.31V10.6226H15.9239V1.31H15.6436ZM16.343 0.616811C15.9549 0.616811 15.6436 0.92906 15.6436 1.31H15.9239C15.9239 1.08516 16.1084 0.897105 16.343 0.897105V0.616811ZM41.4406 0.616811H16.343V0.897105H41.4406V0.616811ZM42.14 1.31C42.14 0.929058 41.8287 0.616811 41.4406 0.616811V0.897105C41.6752 0.897105 41.8597 1.08516 41.8597 1.31H42.14ZM42.14 31.2357V1.31H41.8597V31.2357H42.14ZM41.4406 31.9289C41.8288 31.9289 42.14 31.6167 42.14 31.2357H41.8597C41.8597 31.4606 41.6753 31.6486 41.4406 31.6486V31.9289ZM37.8232 31.9289H41.4406V31.6486H37.8232V31.9289ZM37.1238 31.2357C37.1238 31.6167 37.4351 31.9289 37.8232 31.9289V31.6486C37.5886 31.6486 37.4041 31.4606 37.4041 31.2357H37.1238ZM37.8232 30.5425C37.4351 30.5425 37.1238 30.8548 37.1238 31.2357H37.4041C37.4041 31.0109 37.5886 30.8228 37.8232 30.8228V30.5425ZM36.6436 23.8174C37.0333 23.9991 37.3633 24.5187 37.3633 25.1914H37.6436C37.6436 24.4384 37.2741 23.8021 36.7621 23.5634L36.6436 23.8174ZM36.3081 22.8964C36.145 23.2415 36.2935 23.6542 36.6437 23.8174L36.7621 23.5634C36.5521 23.4655 36.4652 23.22 36.5615 23.0161L36.3081 22.8964ZM37.2393 22.5631C36.8883 22.3994 36.4717 22.5502 36.3081 22.8964L36.5615 23.0161C36.6589 22.8101 36.9089 22.7182 37.1208 22.8171L37.2393 22.5631ZM38.7621 25.1915C38.7621 24.0092 38.149 22.9874 37.2393 22.5631L37.1208 22.8171C37.9172 23.1886 38.4818 24.101 38.4818 25.1915H38.7621ZM37.2393 27.8201C38.1489 27.3958 38.7621 26.374 38.7621 25.1915H38.4818C38.4818 26.2821 37.9171 27.1946 37.1208 27.5661L37.2393 27.8201ZM36.9422 27.8863C37.0415 27.8863 37.1427 27.8652 37.2393 27.8201L37.1208 27.5661C37.0621 27.5935 37.0015 27.606 36.9422 27.606V27.8863ZM36.3081 27.4867C36.4265 27.7373 36.6775 27.8863 36.9422 27.8863V27.606C36.7816 27.606 36.6318 27.5157 36.5615 27.367L36.3081 27.4867ZM36.6437 26.5656C36.2937 26.7289 36.1451 27.1414 36.3081 27.4867L36.5616 27.367C36.4652 27.1629 36.5522 26.9176 36.7621 26.8197L36.6437 26.5656ZM37.3633 25.1914C37.3633 25.8642 37.0333 26.3839 36.6437 26.5656L36.7621 26.8197C37.2741 26.5809 37.6436 25.9444 37.6436 25.1914H37.3633ZM10.0969 29.4382C10.0969 31.2908 11.6147 32.8015 13.4836 32.8015V32.5212C11.7679 32.5212 10.3772 31.1343 10.3772 29.4382H10.0969ZM13.4836 26.0748C11.6147 26.0748 10.0969 27.5856 10.0969 29.4382H10.3772C10.3772 27.742 11.7679 26.3551 13.4836 26.3551V26.0748ZM16.8703 29.4382C16.8703 27.5856 15.3525 26.0748 13.4836 26.0748V26.3551C15.1993 26.3551 16.59 27.742 16.59 29.4382H16.8703ZM13.4836 32.8015C15.3525 32.8015 16.8703 31.2908 16.8703 29.4382H16.59C16.59 31.1343 15.1993 32.5212 13.4836 32.5212V32.8015ZM11.4957 29.4381C11.4957 28.3461 12.3889 27.4611 13.4836 27.4611V27.1808C12.2359 27.1808 11.2154 28.1895 11.2154 29.4381H11.4957ZM13.4836 31.415C12.3888 31.415 11.4957 30.5301 11.4957 29.4381H11.2154C11.2154 30.6867 12.2358 31.6953 13.4836 31.6953V31.415ZM15.4715 29.4381C15.4715 30.5301 14.5784 31.415 13.4836 31.415V31.6953C14.7314 31.6953 15.7518 30.6867 15.7518 29.4381H15.4715ZM13.4836 27.4611C14.5784 27.4611 15.4715 28.3461 15.4715 29.4381H15.7518C15.7518 28.1895 14.7314 27.1808 13.4836 27.1808V27.4611ZM1.55914 30.1313H7.58036V29.851H1.55914V30.1313ZM0.859731 29.4381C0.859731 29.8191 1.17103 30.1313 1.55914 30.1313V29.851C1.32453 29.851 1.14002 29.663 1.14002 29.4381H0.859731ZM1.55914 28.7449C1.17103 28.7449 0.859731 29.0572 0.859731 29.4381H1.14002C1.14002 29.2133 1.32453 29.0252 1.55914 29.0252V28.7449ZM7.58036 28.7449H1.55914V29.0252H7.58036V28.7449ZM8.27976 29.4381C8.27976 29.0572 7.96847 28.7449 7.58036 28.7449V29.0252C7.81497 29.0252 7.99947 29.2133 7.99947 29.4381H8.27976ZM7.58036 30.1313C7.96847 30.1313 8.27976 29.8191 8.27976 29.4381H7.99947C7.99947 29.663 7.81497 29.851 7.58036 29.851V30.1313ZM21.9988 10.2471H35.7847V9.96679H21.9988V10.2471ZM21.2994 9.55389C21.2994 9.93483 21.6107 10.2471 21.9988 10.2471V9.96679C21.7642 9.96679 21.5797 9.77873 21.5797 9.55389H21.2994ZM21.9988 8.8607C21.6107 8.8607 21.2994 9.17295 21.2994 9.55389H21.5797C21.5797 9.32905 21.7642 9.141 21.9988 9.141V8.8607ZM35.7848 8.8607H21.9988V9.141H35.7848V8.8607ZM36.4842 9.55389C36.4842 9.17295 36.1729 8.8607 35.7848 8.8607V9.141C36.0194 9.141 36.2039 9.32905 36.2039 9.55389H36.4842ZM35.7847 10.2471C36.173 10.2471 36.4842 9.93481 36.4842 9.55389H36.2039C36.2039 9.77869 36.0195 9.96679 35.7847 9.96679V10.2471ZM24.6031 6.25792H33.1193V5.97762H24.6031V6.25792ZM23.9037 5.56473C23.9037 5.94567 24.215 6.25792 24.6031 6.25792V5.97762C24.3685 5.97762 24.184 5.78957 24.184 5.56473H23.9037ZM24.6031 4.87154C24.215 4.87154 23.9037 5.18379 23.9037 5.56473H24.184C24.184 5.33989 24.3685 5.15183 24.6031 5.15183V4.87154ZM33.1193 4.87154H24.6031V5.15183H33.1193V4.87154ZM33.8187 5.56473C33.8187 5.18379 33.5074 4.87154 33.1193 4.87154V5.15183C33.3539 5.15183 33.5384 5.33989 33.5384 5.56473H33.8187ZM33.1193 6.25792C33.5075 6.25792 33.8187 5.94569 33.8187 5.56473H33.5384C33.5384 5.78961 33.354 5.97762 33.1193 5.97762V6.25792Z" fill="#124E78"/>
</svg>
