<svg width="77" height="72" viewBox="0 0 77 72" fill="none" xmlns="http://www.w3.org/2000/svg">
<path d="M12.3339 41.8454C5.47538 37.363 4.9193 30.0404 5.49859 26.9395C8.53452 17.2415 15.3962 17.9628 24.3663 12.0777C31.5425 7.36968 51.6964 17.1448 60.8763 22.6209C59.2101 23.1135 55.7145 26.8456 55.0613 37.8325C54.2448 51.5662 34.1681 48.5563 32.6931 46.1525C31.2182 43.7487 20.9071 47.4485 12.3339 41.8454Z" fill="#DDF9FF" stroke="#124E78" stroke-width="3" stroke-linecap="round" stroke-linejoin="round"/>
<path d="M39.4321 70.4318C38.6675 67.4498 36.3556 60.9339 33.2252 58.7268C29.3123 55.9678 26.4763 53.8537 25.1185 51.2932C24.0323 49.2449 19.8784 41.8727 19.4935 40.6856C19.1086 39.4985 20.1241 38.6851 20.8885 38.2335C22.5678 37.2415 23.8414 37.7967 23.8414 37.7967L18.8953 28.4693C18.6065 27.6168 18.4207 26.1877 19.705 25.3755C20.9893 24.5634 22.494 24.9376 23.0492 25.2146L21.7884 22.837C21.6301 22.0765 21.7378 20.5103 23.0895 19.7465C25.1634 18.5748 26.2012 20.0699 26.7218 20.5897C26.8556 20.226 27.6179 19.0461 28.4072 18.6866C29.3938 18.2371 31.163 18.3394 32.1328 20.1684L33.7815 23.2775C33.7849 22.8219 34.3655 21.422 35.4705 20.9186C36.8518 20.2894 38.5173 21.1202 38.8083 21.6688L50.0583 42.8842C50.5399 44.2543 51.3418 47.5221 50.6969 49.6324C50.052 51.7428 54.8894 58.9247 57.3887 62.2519L39.4321 70.4318Z" fill="#DDF9FF"/>
<path d="M25.6227 20.1536C25.1021 19.6339 24.0642 18.1387 21.9903 19.3105C20.6386 20.0742 20.531 21.6405 20.6893 22.401L28.4479 37.0322L21.95 24.7785C21.3949 24.5016 19.8902 24.1274 18.6059 24.9395C17.3216 25.7516 17.5074 27.1808 17.7961 28.0332L27.3005 45.9565C25.8446 43.365 22.7423 37.3606 22.7423 37.3606C22.7423 37.3606 21.4687 36.8055 19.7894 37.7975C19.0249 38.2491 18.0095 39.0624 18.3944 40.2495C18.7793 41.4366 22.9332 48.8088 24.0194 50.8572C25.3772 53.4177 28.2132 55.5318 32.1261 58.2907C35.2564 60.4979 37.5684 67.0137 38.333 69.9957L56.2896 61.8159C53.7903 58.4887 48.9529 51.3067 49.5978 49.1964C50.2426 47.0861 49.4407 43.8183 48.9592 42.4481C45.3062 35.5592 37.9419 21.6717 37.7092 21.2328C37.4182 20.6841 35.7527 19.8533 34.3714 20.4826C33.2664 20.9859 32.6858 22.3858 32.6824 22.8415L37.8225 32.5347C35.8828 28.8769 31.8096 21.1954 31.0337 19.7323C30.0639 17.9034 28.2947 17.8011 27.308 18.2505C26.5187 18.6101 25.7565 19.7899 25.6227 20.1536ZM25.6227 20.1536L33.1837 34.8749" stroke="#124E78" stroke-width="3" stroke-linecap="round" stroke-linejoin="round"/>
<path d="M67.4483 27.3069C67.3153 27.3091 67.1888 27.3642 67.0965 27.4599C67.0043 27.5556 66.9539 27.6841 66.9566 27.817C66.9691 28.4317 66.7891 29.405 66.2072 30.2592C65.6428 31.0877 64.6847 31.8303 63.07 32.0198C62.8218 32.0177 62.6057 32.2002 62.5709 32.4514L62.5603 32.5287C62.5418 32.6622 62.578 32.7975 62.6607 32.9039C62.7434 33.0103 62.8655 33.0789 62.9994 33.094C64.6307 33.2783 65.5965 34.0246 66.1641 34.8578C66.746 35.712 66.926 36.6853 66.9136 37.3C66.9109 37.4329 66.9612 37.5614 67.0534 37.6571C67.1457 37.7528 67.2722 37.8079 67.4052 37.8101L67.4219 37.8104C67.4363 37.8114 67.4509 37.8118 67.4655 37.8115L67.4785 37.8113L67.4913 37.8115C67.506 37.8118 67.5206 37.8114 67.5349 37.8104L67.5517 37.8101C67.6846 37.8079 67.8112 37.7528 67.9034 37.6571C67.9957 37.5614 68.046 37.4329 68.0433 37.3C68.0309 36.6853 68.2109 35.712 68.7928 34.8578C69.3572 34.0293 70.3153 33.2867 71.93 33.0972C72.1782 33.0993 72.3943 32.9169 72.429 32.6656L72.4397 32.5883C72.4582 32.4548 72.422 32.3195 72.3393 32.2131C72.2566 32.1067 72.1345 32.0381 72.0006 32.023C70.3693 31.8387 69.4035 31.0924 68.8359 30.2592C68.254 29.405 68.0739 28.4317 68.0864 27.817C68.0891 27.6841 68.0388 27.5556 67.9465 27.4599C67.8543 27.3642 67.7277 27.3091 67.5948 27.3069L67.578 27.3066C67.5637 27.3056 67.5491 27.3052 67.5344 27.3055L67.5215 27.3057L67.5086 27.3055C67.494 27.3052 67.4794 27.3056 67.465 27.3066L67.4483 27.3069ZM67.064 34.2539C66.6116 33.5899 65.9709 32.9875 65.0958 32.5687C65.993 32.1492 66.6473 31.538 67.1071 30.8631C67.2692 30.625 67.4064 30.3803 67.5215 30.1348C67.6366 30.3803 67.7738 30.625 67.936 30.8631C68.3884 31.5271 69.0291 32.1295 69.9042 32.5483C69.007 32.9678 68.3527 33.579 67.8929 34.2539C67.7307 34.492 67.5935 34.7367 67.4784 34.9822C67.3633 34.7367 67.2261 34.492 67.064 34.2539Z" fill="#124E78" stroke="#124E78" stroke-linecap="round" stroke-linejoin="round"/>
<path d="M62.4455 36.576C62.1708 36.5821 61.9524 36.8087 61.9566 37.0835C61.9699 37.9572 61.7792 39.3113 61.1752 40.4936C60.5844 41.65 59.6181 42.6129 58.0599 42.8599C57.9519 42.8613 57.8466 42.8976 57.7601 42.9646C57.6521 43.0482 57.583 43.1724 57.5689 43.3083L57.5582 43.4114C57.5306 43.6771 57.7169 43.9176 57.9811 43.9574C59.5603 44.1953 60.5368 45.164 61.1321 46.3293C61.7361 47.5115 61.9268 48.8657 61.9135 49.7393C61.9093 50.0141 62.1277 50.2408 62.4024 50.2468L62.4156 50.2471C62.433 50.2486 62.4506 50.2491 62.4683 50.2487L62.4785 50.2485L62.4886 50.2487C62.5062 50.2491 62.5238 50.2486 62.5412 50.2471L62.5545 50.2468C62.8292 50.2408 63.0476 50.0141 63.0434 49.7393C63.0301 48.8657 63.2208 47.5115 63.8248 46.3293C64.4156 45.1728 65.3818 44.21 66.9401 43.9629C67.048 43.9615 67.1534 43.9252 67.2399 43.8583C67.3479 43.7746 67.417 43.6504 67.4311 43.5145L67.4418 43.4114C67.4693 43.1457 67.2831 42.9052 67.0189 42.8654C65.4397 42.6275 64.4632 41.6588 63.8679 40.4936C63.2639 39.3113 63.0732 37.9572 63.0865 37.0835C63.0907 36.8087 62.8723 36.5821 62.5976 36.576L62.5844 36.5757C62.5669 36.5743 62.5493 36.5737 62.5317 36.5741L62.5215 36.5743L62.5114 36.5741C62.4937 36.5737 62.4762 36.5743 62.4587 36.5757L62.4455 36.576ZM62.1391 41.003C62.2875 40.7125 62.4142 40.4146 62.5215 40.116C62.6289 40.4146 62.7556 40.7125 62.904 41.003C63.3888 41.9518 64.1148 42.8359 65.1601 43.3999C64.0917 43.9627 63.3523 44.858 62.8609 45.8198C62.7125 46.1104 62.5858 46.4082 62.4784 46.7068C62.3711 46.4082 62.2444 46.1104 62.096 45.8198C61.6112 44.871 60.8851 43.9869 59.8399 43.4229C60.9083 42.8601 61.6477 41.9648 62.1391 41.003Z" fill="#124E78" stroke="#124E78" stroke-linecap="round" stroke-linejoin="round"/>
<path d="M71.446 42.1369C71.1709 42.1427 70.9522 42.3697 70.9566 42.6448C70.9698 43.4679 70.7805 44.7465 70.1801 45.8629C69.5942 46.9522 68.6305 47.871 67.0619 48.1066C66.9531 48.1076 66.8468 48.144 66.7597 48.2116C66.6526 48.2947 66.5839 48.4177 66.5692 48.5524L66.5585 48.6503C66.5292 48.9183 66.7178 49.1613 66.9847 49.1995C68.5734 49.4269 69.5469 50.351 70.137 51.4483C70.7374 52.5647 70.9267 53.8432 70.9135 54.6663C70.9091 54.9415 71.1278 55.1684 71.403 55.1742L71.4169 55.1745C71.4338 55.1759 71.4507 55.1764 71.4678 55.176L71.4785 55.1758L71.4891 55.176C71.5062 55.1764 71.5231 55.1759 71.5399 55.1745L71.5539 55.1742C71.829 55.1684 72.0478 54.9415 72.0434 54.6663C72.0302 53.8432 72.2195 52.5647 72.8199 51.4483C73.4057 50.3589 74.3695 49.4402 75.938 49.2045C76.0469 49.2036 76.1532 49.1671 76.2403 49.0995C76.3473 49.0165 76.4161 48.8935 76.4308 48.7588L76.4415 48.6609C76.4707 48.3928 76.2822 48.1499 76.0153 48.1117C74.4266 47.8843 73.4531 46.9601 72.863 45.8629C72.2626 44.7465 72.0733 43.4679 72.0865 42.6448C72.0909 42.3697 71.8721 42.1427 71.597 42.1369L71.583 42.1366C71.5662 42.1353 71.5492 42.1348 71.5322 42.1351L71.5215 42.1353L71.5109 42.1351C71.4938 42.1348 71.4769 42.1353 71.46 42.1366L71.446 42.1369ZM71.1342 46.3883C71.2847 46.1084 71.413 45.8214 71.5215 45.5336C71.6301 45.8214 71.7584 46.1084 71.9089 46.3883C72.389 47.2811 73.1015 48.1084 74.1172 48.6443C73.0785 49.1795 72.3527 50.0175 71.8658 50.9229C71.7153 51.2028 71.587 51.4898 71.4784 51.7776C71.3699 51.4898 71.2416 51.2028 71.0911 50.9229C70.6109 50.03 69.8985 49.2027 68.8828 48.6668C69.9215 48.1317 70.6473 47.2937 71.1342 46.3883Z" fill="#124E78" stroke="#124E78" stroke-linecap="round" stroke-linejoin="round"/>
</svg>
