<svg width="70" height="72" viewBox="0 0 70 72" fill="none" xmlns="http://www.w3.org/2000/svg">
<path d="M25 19.0001C22 22.0001 26 30.0001 26 30.5001L34 40L33 50C33.5 50.3333 35.1 51.7 37.5 54.5C40.5 58 47.5 59 53 56.5C58.5 54 58.5 44 57.5 38C56.5 32 54 26 53 23.5C52 21 54.5 15.5 52 13.5C49.5 11.5 44 13.5001 41.5 10.5001C39 7.50008 37 8.50008 36 10.5001C35 12.5001 28 16.0001 25 19.0001Z" fill="#DDF9FF"/>
<path d="M14 45.0001C14 49.0001 10.6667 54.0001 9 56.0001C13.4 62.0001 18.1667 64.1667 20 64.5C20.6667 64 22.3 62.3 23.5 59.5C25 56 28 54.5 32.5 51C37 47.5 49 32.5001 49 30.5C49 28.8999 47.6667 27.8334 47 27.5001C47.8333 26.1667 49.4 23.3 49 22.5C48.6 21.7 46.8333 20.8333 46 20.5C47.1667 19.1667 49 16.1001 47 14.5001C45 12.9001 42.8333 14.5001 42 15.5001C37.3333 20.3334 27.5 30.5001 25.5 32.5001C23.5 34.5001 21 31.0001 20 29.0001V24.5001C19.5 24.5001 18.2 25.1001 17 27.5001C15.5 30.5001 14 40.0001 14 45.0001Z" fill="#DDF9FF"/>
<path d="M55.6166 15.8217C55.9272 16.381 56.1158 16.9997 56.1698 17.6372C56.2238 18.2746 56.1421 18.9163 55.93 19.5198C55.8524 19.8093 55.6815 20.0651 55.4438 20.2477C55.2061 20.4302 54.9148 20.5293 54.6151 20.5295C54.4955 20.529 54.3764 20.513 54.2609 20.4818C54.088 20.4354 53.9259 20.3553 53.784 20.2462C53.6421 20.1371 53.523 20.001 53.4337 19.8459C53.3443 19.6908 53.2865 19.5195 53.2633 19.342C53.2402 19.1645 53.2523 18.9841 53.2989 18.8113C53.5618 17.8357 53.4351 17.4923 53.2498 17.1762C52.9555 16.6611 52.8179 16.5603 52.4322 16.4294C52.2622 16.373 52.105 16.2836 51.9696 16.1664C51.8341 16.0492 51.7231 15.9064 51.6428 15.7463C51.4807 15.4229 51.4537 15.0484 51.5677 14.7051C51.6817 14.3618 51.9274 14.0778 52.2508 13.9157C52.5742 13.7535 52.9487 13.7265 53.292 13.8405C53.7933 13.9965 54.2577 14.2526 54.6572 14.5931C55.0568 14.9336 55.3831 15.3516 55.6166 15.8217ZM53.9229 21.1577C53.5923 21.0121 53.2173 21.0038 52.8805 21.1347C52.5437 21.2655 52.2727 21.5247 52.127 21.8553L51.8218 22.5448C51.7448 22.7088 51.7012 22.8865 51.6937 23.0675C51.6861 23.2485 51.7148 23.4292 51.7779 23.599C51.841 23.7688 51.9374 23.9243 52.0613 24.0564C52.1853 24.1885 52.3343 24.2946 52.4997 24.3685C52.6652 24.4423 52.8437 24.4824 53.0248 24.4864C53.2059 24.4905 53.386 24.4583 53.5545 24.3919C53.7231 24.3255 53.8767 24.2262 54.0064 24.0997C54.1361 23.9732 54.2393 23.8222 54.3099 23.6553L54.6206 22.9522C54.7657 22.6217 54.7738 22.2471 54.643 21.9106C54.5122 21.5742 54.2532 21.3034 53.9229 21.1577ZM48.7205 53.5495C48.1013 53.6693 47.4721 53.73 46.8415 53.7307C43.3546 53.7307 40.0789 51.7917 37.0662 47.9914C34.2137 50.8835 31.1423 53.5512 27.8795 55.9708C24.2005 58.5598 22.1743 64.9409 22.1566 65.0063C22.0696 65.2829 21.8966 65.5245 21.6628 65.6961C21.429 65.8676 21.1466 65.9601 20.8566 65.9601H20.7762C20.5134 65.9375 20.2519 65.9016 19.9927 65.8524L17.2675 71.2593C17.1034 71.5793 16.8193 71.8215 16.4773 71.9329C16.1353 72.0444 15.7631 72.0161 15.4419 71.8542C15.1207 71.6924 14.8765 71.41 14.7626 71.0689C14.6487 70.7277 14.6744 70.3553 14.8339 70.0329L17.3316 65.0758C13.0091 63.2365 9.28473 60.2289 6.57655 56.3905L2.44786 61.7878C2.22777 62.0751 1.90257 62.2632 1.5438 62.3107C1.18502 62.3583 0.822062 62.2613 0.534761 62.0412C0.24746 61.8212 0.0593547 61.496 0.0118246 61.1372C-0.0357054 60.7784 0.0612339 60.4154 0.281317 60.1281L4.93188 54.0496C4.77497 53.7984 4.70419 53.5029 4.73025 53.2078C4.75631 52.9128 4.8778 52.6343 5.07632 52.4144C5.11992 52.3654 9.37806 47.5963 8.84119 42.3557C8.15989 35.7648 13.3228 22.8582 14.3638 20.336C14.7032 19.5134 15.3017 18.824 16.0685 18.3725C16.8353 17.921 17.7285 17.732 18.6124 17.8343C19.0525 15.4402 20.5746 10.246 25.638 8.65034C26.7524 8.25177 27.7772 7.63744 28.654 6.8425C29.5308 6.04756 30.2423 5.0876 30.7478 4.01749C31.4897 2.37582 32.822 1.07325 34.4799 0.368441C38.6291 -0.878342 42.9022 1.07154 46.216 5.7262C47.3061 7.25095 48.8745 7.548 51.3503 7.90636C54.2758 8.3315 57.9167 8.86019 60.3503 13.121C62.9515 17.6762 61.0889 21.8417 59.2861 25.8832C57.9855 28.2939 57.2091 30.9523 57.0079 33.6841C57.0787 39.6046 57.2123 51.9239 48.7205 53.5495ZM39.0678 41.5967C40.6702 39.2803 45.2227 34.2455 47.7885 31.4535C47.8905 31.3426 47.9691 31.2123 48.0196 31.0703C48.0702 30.9284 48.0916 30.7777 48.0827 30.6273C48.0738 30.4769 48.0348 30.3298 47.9678 30.1948C47.9009 30.0598 47.8075 29.9397 47.6931 29.8416C47.4741 29.6516 47.1901 29.5538 46.9005 29.5685C46.611 29.5833 46.3384 29.7094 46.1397 29.9206L45.4748 30.6237L38.9724 37.5226C38.8496 37.6527 38.7023 37.7574 38.539 37.8307C38.3757 37.904 38.1996 37.9443 38.0207 37.9495C37.8417 37.9547 37.6636 37.9246 37.4963 37.8609C37.329 37.7973 37.1759 37.7013 37.0457 37.5784C36.9155 37.4556 36.8108 37.3083 36.7376 37.145C36.6643 36.9817 36.6239 36.8055 36.6188 36.6266C36.6136 36.4477 36.6437 36.2695 36.7073 36.1023C36.771 35.935 36.867 35.7819 36.9899 35.6517L43.0139 29.2693L44.0291 28.1955L47.4955 24.5165C47.7412 24.2579 47.8757 23.9132 47.8701 23.5566C47.8645 23.1999 47.7193 22.8596 47.4655 22.6089C47.3416 22.4745 47.1895 22.369 47.0202 22.3C46.8509 22.231 46.6684 22.2002 46.4858 22.2096C46.304 22.2109 46.1242 22.2485 45.9571 22.3204C45.79 22.3922 45.639 22.4968 45.5129 22.6279L43.916 24.2821L35.3997 33.4116C35.2789 33.5471 35.1322 33.6571 34.9683 33.7352C34.8044 33.8132 34.6266 33.8577 34.4452 33.8661C34.2639 33.8744 34.0827 33.8464 33.9123 33.7838C33.7419 33.7211 33.5858 33.6251 33.453 33.5012C33.3203 33.3774 33.2136 33.2282 33.1393 33.0626C33.065 32.897 33.0245 32.7182 33.0203 32.5367C33.0161 32.3552 33.0482 32.1747 33.1147 32.0057C33.1812 31.8368 33.2808 31.6829 33.4076 31.553L41.947 22.4017L41.9661 22.384L46.3169 17.7226C46.5801 17.4279 46.7183 17.0423 46.7022 16.6474C46.6861 16.2526 46.5169 15.8795 46.2305 15.6073C45.944 15.3351 45.5629 15.185 45.1678 15.1889C44.7726 15.1928 44.3945 15.3504 44.1135 15.6282L41.3502 18.4815L40.162 19.7079L32.0341 28.1015C31.7818 28.3613 31.4367 28.5103 31.0746 28.5157C30.7125 28.5211 30.3631 28.3824 30.1033 28.1301C29.8434 27.8779 29.6944 27.5327 29.6891 27.1706C29.6837 26.8086 29.8224 26.4592 30.0746 26.1993L39.3921 16.5793L39.9753 15.9798C40.1677 15.779 40.2971 15.5263 40.3476 15.2529C40.398 14.9794 40.3673 14.6972 40.2592 14.441C40.1511 14.1848 39.9703 13.9659 39.7393 13.8112C39.5082 13.6566 39.2369 13.573 38.9588 13.5707H38.9506C38.763 13.5704 38.5772 13.6074 38.4041 13.6797C38.231 13.752 38.074 13.8581 37.9423 13.9918L21.1196 31.0243C21.0082 31.2089 20.8545 31.3644 20.6713 31.478L18.0224 34.1596C17.7684 34.4168 17.4226 34.5624 17.0611 34.5646C16.6997 34.5668 16.3521 34.4253 16.095 34.1712C15.8379 33.9172 15.6922 33.5714 15.69 33.2099C15.6879 32.8485 15.8294 32.5009 16.0834 32.2438L18.6724 29.6208L19.7284 22.4385C19.7865 22.0354 19.6965 21.6249 19.475 21.2831C19.2535 20.9414 18.9155 20.6915 18.5239 20.5799C18.2005 20.4908 17.8557 20.5231 17.5544 20.6707C17.2532 20.8182 17.0164 21.071 16.8887 21.3811C13.9155 28.5784 11.1154 37.7705 11.5569 42.0818C12.0774 47.1589 9.16413 51.62 7.78381 53.4173C12.7314 60.6296 17.8589 62.559 19.9559 63.0646C20.7831 60.8844 22.891 56.1521 26.3166 53.743C31.0639 50.2502 35.3486 46.1688 39.0678 41.5967ZM54.2827 33.7141C54.4556 30.586 55.3124 27.5338 56.7926 24.7727C58.4563 21.0459 59.8939 17.8234 57.978 14.4714C56.2067 11.366 53.7703 11.0131 50.9525 10.6043C48.5406 10.2541 45.8073 9.85761 43.9909 7.30682C41.402 3.66458 38.2135 2.08668 35.2621 2.97783C34.4731 3.21628 33.9117 4.06791 33.0615 5.44959C31.6981 8.1711 29.3266 10.2532 26.4515 11.2529C22.1293 12.6155 21.2886 18.0959 21.17 19.0974C21.6541 19.5806 22.0189 20.17 22.2353 20.8188C22.4518 21.4676 22.5139 22.158 22.4168 22.835L21.9004 26.3451L35.9979 12.08C36.3825 11.6893 36.8414 11.3795 37.3476 11.1689C37.8537 10.9583 38.3969 10.8511 38.9452 10.8537H38.9711C39.524 10.8555 40.0709 10.9689 40.579 11.1871C41.0871 11.4053 41.5459 11.7238 41.9279 12.1236C42.2467 12.4599 42.507 12.8473 42.6978 13.2696C43.5491 12.6439 44.6032 12.3585 45.6538 12.4693C46.7045 12.5801 47.6759 13.0791 48.3779 13.8686C49.0799 14.6581 49.462 15.6811 49.4492 16.7375C49.4365 17.7939 49.0299 18.8075 48.309 19.5798L48.0896 19.8142C48.6997 20.0697 49.2387 20.4695 49.6603 20.9793C50.0819 21.489 50.3734 22.0935 50.51 22.7407C50.6465 23.3879 50.624 24.0586 50.4442 24.6952C50.2645 25.3318 49.933 25.9153 49.4781 26.3955L48.6606 27.2594C49.1981 27.5213 49.6669 27.9053 50.0295 28.3807C50.3921 28.8561 50.6385 29.4097 50.7489 29.9974C50.8594 30.585 50.8308 31.1903 50.6655 31.7649C50.5002 32.3395 50.2028 32.8675 49.797 33.3067C47.7681 35.51 44.5101 39.1045 42.5193 41.5722C44.7581 44.5032 46.6643 45.6219 47.1808 45.5238C47.5405 45.0656 47.7963 44.5346 47.9302 43.9677C48.0375 43.6225 48.2776 43.3342 48.5975 43.166C48.9174 42.9979 49.2911 42.9637 49.6362 43.0711C49.9813 43.1784 50.2696 43.4184 50.4378 43.7384C50.6059 44.0583 50.6401 44.4319 50.5328 44.7771C49.9005 46.8087 48.9453 47.9615 47.6958 48.1999C47.5162 48.2346 47.3337 48.2519 47.1508 48.2517C44.818 48.2517 42.2645 45.596 40.8201 43.8232C40.3132 44.4855 39.6796 45.2253 38.9697 46.0034C41.9089 49.8323 45.0101 51.4879 48.2109 50.8774C53.7199 49.8173 54.3753 41.6063 54.2827 33.7141ZM56.1658 66.2803C55.8933 66.1359 55.6285 65.9887 55.3714 65.8388C55.0579 65.6581 54.6854 65.6094 54.336 65.7033C53.9865 65.7972 53.6887 66.0261 53.508 66.3396C53.3273 66.6531 53.2786 67.0255 53.3725 67.375C53.4664 67.7244 53.6953 68.0222 54.0088 68.2029C54.2895 68.3637 54.5733 68.5218 54.8604 68.6771C55.1782 68.8493 55.5515 68.8882 55.898 68.7852C56.2445 68.6822 56.5359 68.4458 56.7081 68.128C56.8803 67.8102 56.9192 67.4369 56.8162 67.0904C56.7132 66.7439 56.4768 66.4525 56.159 66.2803H56.1658ZM42.7741 55.5076C42.5432 55.2295 42.2113 55.0545 41.8513 55.0212C41.4914 54.9878 41.133 55.0988 40.8549 55.3297C40.5768 55.5607 40.4018 55.8926 40.3685 56.2525C40.3351 56.6124 40.4461 56.9709 40.6771 57.249C43.4744 60.4393 46.6452 63.2817 50.1213 65.7148C50.2675 65.8181 50.4326 65.8915 50.6071 65.931C50.7817 65.9704 50.9623 65.9751 51.1387 65.9447C51.3151 65.9143 51.4838 65.8495 51.6351 65.754C51.7865 65.6584 51.9175 65.534 52.0207 65.3878C52.124 65.2416 52.1974 65.0765 52.2369 64.9019C52.2763 64.7273 52.281 64.5467 52.2506 64.3703C52.2202 64.1939 52.1554 64.0253 52.0599 63.8739C51.9643 63.7226 51.8399 63.5916 51.6937 63.4883C48.4202 61.1856 45.4283 58.5066 42.7796 55.5062L42.7741 55.5076ZM59.0858 52.7823C58.9483 52.4614 58.6927 52.2054 58.372 52.0674C58.0512 51.9294 57.6896 51.9198 57.362 52.0406C57.0343 52.1614 56.7656 52.4034 56.6112 52.7167C56.4568 53.0299 56.4286 53.3905 56.5323 53.7239C56.6045 53.9215 58.365 58.6293 64.7256 65.5281C64.8465 65.6616 64.9925 65.7699 65.1554 65.8466C65.3183 65.9233 65.4947 65.967 65.6746 65.9751C65.8544 65.9832 66.0341 65.9556 66.2032 65.8938C66.3723 65.8321 66.5275 65.7375 66.6599 65.6154C66.7922 65.4933 66.899 65.3463 66.9742 65.1827C67.0493 65.0191 67.0913 64.8422 67.0977 64.6623C67.1041 64.4824 67.0748 64.303 67.0115 64.1344C66.9481 63.9659 66.852 63.8116 66.7287 63.6805C60.785 57.234 59.1063 52.826 59.0913 52.7823H59.0858ZM69.15 54.145C67.2851 50.6902 65.7876 47.0494 64.682 43.2823C64.6337 43.1078 64.5511 42.9447 64.4391 42.8025C64.327 42.6603 64.1877 42.5419 64.0294 42.4541C63.871 42.3664 63.6967 42.311 63.5168 42.2914C63.3368 42.2717 63.1547 42.2881 62.9811 42.3397C62.8076 42.3912 62.646 42.4768 62.5059 42.5914C62.3658 42.7061 62.2499 42.8475 62.1651 43.0075C62.0803 43.1674 62.0282 43.3426 62.0118 43.5229C61.9955 43.7033 62.0152 43.885 62.0699 44.0576C63.2294 48.0077 64.7999 51.8252 66.7559 55.4476C66.8415 55.6048 66.9571 55.7436 67.0963 55.8561C67.2355 55.9686 67.3955 56.0526 67.5671 56.1033C67.7387 56.1539 67.9187 56.1703 68.0966 56.1515C68.2746 56.1326 68.4471 56.0789 68.6043 55.9933C68.7615 55.9078 68.9003 55.7921 69.0128 55.653C69.1253 55.5138 69.2093 55.3538 69.26 55.1822C69.3106 55.0105 69.327 54.8306 69.3082 54.6526C69.2893 54.4747 69.2356 54.3021 69.15 54.145ZM60.4144 36.7568C60.4144 36.8017 60.5506 37.8468 60.9254 39.5814C60.9905 39.8863 61.1582 40.1595 61.4005 40.3557C61.6427 40.5518 61.9449 40.659 62.2566 40.6593C62.3529 40.6595 62.4488 40.649 62.5428 40.6279C62.896 40.5521 63.2046 40.3392 63.4008 40.0359C63.5971 39.7326 63.6648 39.3638 63.5892 39.0105C63.2445 37.4013 63.1191 36.4216 63.1178 36.4148C63.068 36.0601 62.8805 35.7392 62.596 35.5217C62.3115 35.3042 61.9527 35.2074 61.5974 35.2524C61.2421 35.2973 60.9187 35.4804 60.6973 35.7619C60.4759 36.0435 60.3743 36.4009 60.4144 36.7568Z" fill="#124E78"/>
</svg>
