<svg width="57" height="72" viewBox="0 0 57 72" fill="none" xmlns="http://www.w3.org/2000/svg">
<path d="M41.9884 15.0449H14.8242C13.7196 15.0449 12.8242 15.9404 12.8242 17.0449V59.2539C12.8242 60.3585 13.7196 61.2539 14.8242 61.2539H41.9884C43.093 61.2539 43.9884 60.3585 43.9884 59.2539V17.0449C43.9884 15.9404 43.093 15.0449 41.9884 15.0449Z" fill="#DDF9FF"/>
<path d="M55.4062 36.2956C56.1829 36.2956 56.8125 35.666 56.8125 34.8893V12.6562C56.8125 8.77922 53.6583 5.625 49.7812 5.625H40.2498C39.5478 4.72725 38.4559 4.14844 37.2305 4.14844H34.9431C33.8238 1.66022 31.3231 0 28.5296 0H28.2828C25.4893 0 22.9887 1.66022 21.8694 4.14844H19.582C18.3566 4.14844 17.2647 4.72725 16.5627 5.625H7.03125C3.15422 5.625 0 8.77922 0 12.6562V64.9688C0 68.8458 3.15422 72 7.03125 72H49.7812C53.6583 72 56.8125 68.8458 56.8125 64.9688V46.6786C56.8125 45.902 56.1829 45.2724 55.4062 45.2724C54.6296 45.2724 54 45.902 54 46.6786V64.9688C54 67.295 52.1075 69.1875 49.7812 69.1875H7.03125C4.70503 69.1875 2.8125 67.295 2.8125 64.9688V12.6562C2.8125 10.33 4.70503 8.4375 7.03125 8.4375H15.75V11.25H8.4375C6.88669 11.25 5.625 12.5117 5.625 14.0625V63.5625C5.625 65.1133 6.88669 66.375 8.4375 66.375H48.375C49.9258 66.375 51.1875 65.1133 51.1875 63.5625V14.0625C51.1875 12.5117 49.9258 11.25 48.375 11.25H41.0625V8.4375H49.7812C52.1075 8.4375 54 10.33 54 12.6562V34.8893C54 35.666 54.6296 36.2956 55.4062 36.2956ZM18.5625 7.98047C18.5625 7.41825 19.0198 6.96094 19.582 6.96094H22.8551C23.4899 6.96094 24.0459 6.53569 24.2122 5.92312C24.7094 4.09162 26.3832 2.8125 28.2829 2.8125H28.5297C30.4293 2.8125 32.1033 4.09162 32.6004 5.92312C32.7668 6.53569 33.3228 6.96094 33.9576 6.96094H37.2306C37.7928 6.96094 38.2501 7.41825 38.2501 7.98047V11.25H18.5625V7.98047ZM48.375 14.0625L48.3768 63.5625C48.3768 63.5625 48.3763 63.5625 48.375 63.5625H8.4375V14.0625H17.1562H39.6562H48.375Z" fill="#124E78"/>
<path d="M56.4005 39.914C56.1389 39.6524 55.7761 39.502 55.4062 39.502C55.0364 39.502 54.6736 39.6524 54.412 39.914C54.1505 40.1755 54 40.5384 54 40.9082C54 41.2795 54.1505 41.6409 54.412 41.9024C54.6736 42.1654 55.0364 42.3145 55.4062 42.3145C55.7761 42.3145 56.1389 42.1654 56.4005 41.9024C56.662 41.6409 56.8125 41.2795 56.8125 40.9082C56.8125 40.5384 56.662 40.177 56.4005 39.914Z" fill="#124E78"/>
<path d="M30.3848 25.162C30.1233 24.9005 29.7605 24.75 29.3906 24.75C29.0208 24.75 28.658 24.9005 28.3964 25.162C28.1348 25.4236 27.9844 25.7864 27.9844 26.1562C27.9844 26.5261 28.1348 26.8889 28.3964 27.1505C28.658 27.412 29.0208 27.5625 29.3906 27.5625C29.7605 27.5625 30.1233 27.412 30.3848 27.1505C30.6464 26.8889 30.7969 26.5261 30.7969 26.1562C30.7969 25.7864 30.6464 25.4236 30.3848 25.162Z" fill="#124E78"/>
<path d="M43.9431 24.75H35.5781C34.8015 24.75 34.1719 25.3796 34.1719 26.1562C34.1719 26.9329 34.8015 27.5625 35.5781 27.5625H43.9431C44.7197 27.5625 45.3493 26.9329 45.3493 26.1562C45.3493 25.3796 44.7197 24.75 43.9431 24.75Z" fill="#124E78"/>
<path d="M43.9431 39.9375H29.3906C28.614 39.9375 27.9844 40.5671 27.9844 41.3438C27.9844 42.1204 28.614 42.75 29.3906 42.75H43.9431C44.7197 42.75 45.3493 42.1204 45.3493 41.3438C45.3493 40.5671 44.7197 39.9375 43.9431 39.9375Z" fill="#124E78"/>
<path d="M43.9431 55.125H29.3906C28.614 55.125 27.9844 55.7546 27.9844 56.5312C27.9844 57.3079 28.614 57.9375 29.3906 57.9375H43.9431C44.7197 57.9375 45.3493 57.3079 45.3493 56.5312C45.3493 55.7546 44.7197 55.125 43.9431 55.125Z" fill="#124E78"/>
<path d="M20.5312 24.75H15.1875V19.4062C15.1875 18.6296 14.5579 18 13.7812 18C13.0046 18 12.375 18.6296 12.375 19.4062V26.1562C12.375 26.9329 13.0046 27.5625 13.7812 27.5625H20.5312C21.3079 27.5625 21.9375 26.9329 21.9375 26.1562C21.9375 25.3796 21.3079 24.75 20.5312 24.75Z" fill="#124E78"/>
<path d="M23.4868 17.9597C22.9378 17.4106 22.0474 17.4106 21.4982 17.9597L19.5593 19.8986L19.3949 19.7343C18.8458 19.1851 17.9553 19.1851 17.406 19.7343C16.8568 20.2834 16.8569 21.1738 17.406 21.7231L18.5648 22.8819C18.8394 23.1565 19.1993 23.2938 19.5592 23.2938C19.919 23.2938 20.279 23.1565 20.5535 22.8819L23.4868 19.9486C24.036 19.3994 24.036 18.509 23.4868 17.9597Z" fill="#124E78"/>
<path d="M20.5312 39.8965H15.1875V34.5527C15.1875 33.7761 14.5579 33.1465 13.7812 33.1465C13.0046 33.1465 12.375 33.7761 12.375 34.5527V41.3027C12.375 42.0794 13.0046 42.709 13.7812 42.709H20.5312C21.3079 42.709 21.9375 42.0794 21.9375 41.3027C21.9375 40.5261 21.3079 39.8965 20.5312 39.8965Z" fill="#124E78"/>
<path d="M23.4868 33.1062C22.9378 32.5571 22.0474 32.5571 21.4982 33.1062L19.5593 35.0451L19.3949 34.8807C18.8458 34.3316 17.9553 34.3316 17.406 34.8807C16.8568 35.4299 16.8569 36.3203 17.406 36.8696L18.5648 38.0283C18.8394 38.303 19.1993 38.4402 19.5592 38.4402C19.919 38.4402 20.279 38.303 20.5535 38.0283L23.4868 35.095C24.036 34.5459 24.036 33.6555 23.4868 33.1062Z" fill="#124E78"/>
<path d="M20.5312 55.125H15.1875V49.7812C15.1875 49.0046 14.5579 48.375 13.7812 48.375C13.0046 48.375 12.375 49.0046 12.375 49.7812V56.5312C12.375 57.3079 13.0046 57.9375 13.7812 57.9375H20.5312C21.3079 57.9375 21.9375 57.3079 21.9375 56.5312C21.9375 55.7546 21.3079 55.125 20.5312 55.125Z" fill="#124E78"/>
<path d="M23.4868 48.3347C22.9378 47.7856 22.0474 47.7856 21.4982 48.3347L19.5593 50.2736L19.3949 50.1093C18.8458 49.5601 17.9553 49.5601 17.406 50.1093C16.8568 50.6584 16.8569 51.5488 17.406 52.0981L18.5648 53.2569C18.8394 53.5315 19.1993 53.6688 19.5592 53.6688C19.919 53.6688 20.279 53.5315 20.5535 53.2569L23.4868 50.3236C24.036 49.7744 24.036 48.884 23.4868 48.3347Z" fill="#124E78"/>
</svg>
