<svg width="44" height="30" viewBox="0 0 44 30" fill="none" xmlns="http://www.w3.org/2000/svg">
<path d="M8.41642 7.5001V22.6639V25.8434L22.4783 29.0229L38.9646 24.376V9.21215H42.8438L39.692 3.34229H7.68908L5.74951 7.5001H8.41642Z" fill="#DDF9FF"/>
<path fill-rule="evenodd" clip-rule="evenodd" d="M0.0635008 9.40609L4.33322 0.378676C4.44255 0.147461 4.67536 0 4.93114 0H39.0689C39.3246 0 39.5574 0.147485 39.6668 0.378673L43.9365 9.40613C44.0334 9.61093 44.0187 9.85124 43.8974 10.0427C43.7761 10.2342 43.5652 10.3502 43.3386 10.3502H39.7304V24.5623C39.7304 24.8673 39.5218 25.1328 39.2254 25.2049L22.1633 29.3597L22.1532 29.3628C22.1352 29.3683 22.1022 29.374 22.0624 29.3774C22.0316 29.38 22.0083 29.3803 22.0046 29.3803C22.0011 29.3803 21.9732 29.38 21.9379 29.3772C21.9178 29.3756 21.8981 29.3734 21.8809 29.3707C21.8624 29.3677 21.855 29.3654 21.855 29.3654L21.8407 29.3606L4.77465 25.2049C4.47828 25.1328 4.26973 24.8673 4.26973 24.5623V10.3502H0.661406C0.434654 10.3502 0.223748 10.2341 0.102579 10.0427C-0.0186424 9.85126 -0.0333989 9.61102 0.0635008 9.40609ZM20.9555 1.32281H5.34993L1.70591 9.02743H17.3115L20.9555 1.32281ZM22.6614 27.877L38.4076 24.0425V10.3502H26.2697C26.014 10.3502 25.7812 10.2028 25.6718 9.97157L23.3405 5.04253L22.6614 5.19503V10.0876C22.6614 10.4528 22.3653 10.749 22 10.749C21.6347 10.749 21.3386 10.4528 21.3386 10.0876V5.19503L20.6595 5.04253L18.3282 9.97161C18.2188 10.2028 17.986 10.3502 17.7303 10.3502H5.59255V24.0425L21.3386 27.877V19.2925C21.3386 18.9273 21.6347 18.6311 22 18.6311C22.3653 18.6311 22.6614 18.9273 22.6614 19.2925V27.877ZM23.0445 1.32281L26.6885 9.02743H42.2941L38.6501 1.32281H23.0445Z" fill="#124E78"/>
<path d="M22.9396 14.3189C22.7812 13.939 22.4 13.6883 21.9884 13.6911C21.5607 13.6939 21.1744 13.9784 21.0366 14.3816C20.8996 14.7826 21.0343 15.2431 21.3672 15.5059C21.7016 15.7699 22.1749 15.7968 22.5372 15.5728C22.9569 15.3132 23.1258 14.7736 22.9396 14.3189Z" fill="#124E78"/>
</svg>
