<svg width="32" height="32" viewBox="0 0 32 32" fill="none" xmlns="http://www.w3.org/2000/svg">
<path d="M13.3333 27.7813C13.3333 26.976 12.98 26.2093 12.3493 25.7093C11.3853 24.944 9.71331 24 7.33331 24C4.95331 24 3.28131 24.944 2.31731 25.7093C1.68665 26.2093 1.33331 26.976 1.33331 27.7813V29.3333H13.3333V27.7813Z" stroke="#00AFD0" stroke-width="2" stroke-miterlimit="10" stroke-linecap="square"/>
<path d="M7.33333 20C9.17428 20 10.6667 18.5077 10.6667 16.6667C10.6667 14.8258 9.17428 13.3334 7.33333 13.3334C5.49238 13.3334 4 14.8258 4 16.6667C4 18.5077 5.49238 20 7.33333 20Z" stroke="#00AFD0" stroke-width="2" stroke-miterlimit="10" stroke-linecap="square"/>
<path d="M30.6666 27.7813C30.6666 26.976 30.3133 26.2093 29.6826 25.7093C28.7186 24.944 27.0466 24 24.6666 24C22.2866 24 20.6146 24.944 19.6506 25.7093C19.02 26.2093 18.6666 26.976 18.6666 27.7813V29.3333H30.6666V27.7813Z" stroke="#00AFD0" stroke-width="2" stroke-miterlimit="10" stroke-linecap="square"/>
<path d="M24.6666 20C26.5076 20 28 18.5077 28 16.6667C28 14.8258 26.5076 13.3334 24.6666 13.3334C22.8257 13.3334 21.3333 14.8258 21.3333 16.6667C21.3333 18.5077 22.8257 20 24.6666 20Z" stroke="#00AFD0" stroke-width="2" stroke-miterlimit="10" stroke-linecap="square"/>
<path d="M16 2.66669V10.6667" stroke="#00AFD0" stroke-width="2" stroke-miterlimit="10" stroke-linecap="square"/>
<path d="M12 6.66669H20" stroke="#00AFD0" stroke-width="2" stroke-miterlimit="10" stroke-linecap="square"/>
</svg>
