<svg width="28" height="34" viewBox="0 0 28 34" fill="none" xmlns="http://www.w3.org/2000/svg">
<rect x="14.5761" y="18.5149" width="12.8612" height="13.7187" fill="#DDF9FF"/>
<rect x="0.857361" y="1.36646" width="11.1464" height="9.43158" fill="#DDF9FF"/>
<path d="M0.636364 11.3266H16.6092C15.7609 12.1561 15.2727 13.2954 15.2727 14.509V15.7818H12.0909C11.7394 15.7818 11.4545 16.0667 11.4545 16.4181V32.4545C11.4545 32.806 11.7394 33.0909 12.0909 33.0909H16.8636C17.2151 33.0909 17.5 32.806 17.5 32.4545C17.5 32.103 17.2151 31.8181 16.8636 31.8181H12.7273V17.0545H15.2727V20.2363C15.2727 20.5878 15.5576 20.8727 15.9091 20.8727C16.2606 20.8727 16.5455 20.5878 16.5455 20.2363V17.0545H22.9091V20.2363C22.9091 20.5878 23.194 20.8727 23.5455 20.8727C23.8969 20.8727 24.1818 20.5878 24.1818 20.2363V17.0545H26.7273V31.8181H22.5909C22.2394 31.8181 21.9545 32.103 21.9545 32.4545C21.9545 32.806 22.2394 33.0909 22.5909 33.0909H27.3636C27.7151 33.0909 28 32.806 28 32.4545V16.4181C28 16.0667 27.7151 15.7818 27.3636 15.7818H24.1818V14.509C24.1818 13.2581 23.6632 12.087 22.7662 11.2518L23.4371 10.5811C23.9173 10.0999 24.1818 9.46095 24.1818 8.78176V4.96358C24.1818 2.50053 22.1884 0.509033 19.7273 0.509033C17.3233 0.509033 14.9159 1.03652 12.7273 2.03694V1.1454C12.7273 0.793933 12.4424 0.509033 12.0909 0.509033H0.636364C0.2849 0.509033 0 0.793933 0 1.1454V10.6909C0 11.0423 0.2849 11.3266 0.636364 11.3266ZM22.9091 14.509V15.7818H16.5455V14.509C16.5455 13.5989 16.9293 12.7517 17.5902 12.1532L17.9275 12.4906C18.9226 13.4856 20.5318 13.4858 21.5269 12.4906L21.8644 12.1533C22.5252 12.7517 22.9091 13.6006 22.9091 14.509ZM12.7782 3.42199C14.9255 2.34895 17.3284 1.78176 19.7273 1.78176C21.4868 1.78176 22.9091 3.20543 22.9091 4.96358V8.78176C22.9091 9.11649 22.7732 9.4446 22.5369 9.68139C21.7042 10.5138 21.3035 10.9144 20.627 11.5905C20.1295 12.0882 19.3253 12.0883 18.8275 11.5905C18.3856 11.1487 17.3783 10.1414 16.9184 9.68145C16.4209 9.18388 16.4207 8.37971 16.9184 7.88194C17.416 7.38437 18.2202 7.38424 18.7179 7.88194L19.2772 8.44131C19.5257 8.68981 19.9287 8.68981 20.1772 8.44131C20.4257 8.19281 20.4257 7.78986 20.1772 7.5413L19.6179 6.98193C18.623 5.98698 17.0136 5.98666 16.0185 6.98193C15.1726 7.82772 15.0583 9.09676 15.6134 10.0544H12.7273V3.44751L12.7782 3.42199ZM1.27273 1.78176H11.4545V10.0545H1.27273V1.78176Z" fill="#124E78"/>
<path d="M19.7274 33.0911C20.0788 33.0911 20.3637 32.8062 20.3637 32.4547C20.3637 32.1033 20.0788 31.8184 19.7274 31.8184C19.3759 31.8184 19.091 32.1033 19.091 32.4547C19.091 32.8062 19.3759 33.0911 19.7274 33.0911Z" fill="#124E78"/>
</svg>
